<svg width="572" height="81" viewBox="0 0 572 81" fill="none" xmlns="http://www.w3.org/2000/svg">
<path d="M17.1824 3.344C17.097 4.21867 17.033 5.072 16.9904 5.904C16.969 6.71467 16.9584 7.33333 16.9584 7.76C16.9584 8.16533 16.969 8.56 16.9904 8.944C17.0117 9.30667 17.033 9.616 17.0544 9.872H16.3184C16.1477 8.4 15.8704 7.248 15.4864 6.416C15.1024 5.56267 14.5797 4.96533 13.9184 4.624C13.2784 4.26133 12.4357 4.08 11.3904 4.08H9.63037C8.99037 4.08 8.49971 4.13333 8.15837 4.24C7.81704 4.34667 7.58237 4.57067 7.45437 4.912C7.34771 5.25333 7.29437 5.776 7.29437 6.48V22.864C7.29437 23.5467 7.34771 24.0693 7.45437 24.432C7.58237 24.7733 7.81704 24.9973 8.15837 25.104C8.49971 25.2107 8.99037 25.264 9.63037 25.264H11.4544C12.5424 25.264 13.449 25.0613 14.1744 24.656C14.921 24.2507 15.5184 23.5893 15.9664 22.672C16.4144 21.7333 16.745 20.4533 16.9584 18.832H17.6944C17.6304 19.4933 17.5984 20.3467 17.5984 21.392C17.5984 21.84 17.609 22.4907 17.6304 23.344C17.673 24.1973 17.737 25.0827 17.8224 26C16.7344 25.9573 15.5077 25.936 14.1424 25.936C12.777 25.9147 11.561 25.904 10.4944 25.904C10.0037 25.904 9.35304 25.904 8.54237 25.904C7.75304 25.904 6.88904 25.9147 5.95037 25.936C5.03304 25.936 4.09437 25.9467 3.13437 25.968C2.19571 25.968 1.29971 25.9787 0.446373 26V25.36C1.15037 25.3173 1.67304 25.232 2.01437 25.104C2.37704 24.976 2.61171 24.72 2.71837 24.336C2.84637 23.952 2.91037 23.376 2.91037 22.608V6.736C2.91037 5.94666 2.84637 5.37067 2.71837 5.008C2.61171 4.624 2.37704 4.368 2.01437 4.24C1.67304 4.09067 1.15037 4.00533 0.446373 3.984V3.344C1.29971 3.36533 2.19571 3.38667 3.13437 3.408C4.09437 3.408 5.03304 3.41867 5.95037 3.44C6.88904 3.44 7.75304 3.44 8.54237 3.44C9.35304 3.44 10.0037 3.44 10.4944 3.44C11.4757 3.44 12.585 3.44 13.8224 3.44C15.081 3.41867 16.201 3.38667 17.1824 3.344ZM12.0304 14.288C12.0304 14.288 12.0304 14.3947 12.0304 14.608C12.0304 14.8213 12.0304 14.928 12.0304 14.928H6.33437C6.33437 14.928 6.33437 14.8213 6.33437 14.608C6.33437 14.3947 6.33437 14.288 6.33437 14.288H12.0304ZM12.9584 10.064C12.873 11.28 12.8304 12.208 12.8304 12.848C12.8517 13.488 12.8624 14.0747 12.8624 14.608C12.8624 15.1413 12.873 15.728 12.8944 16.368C12.9157 17.008 12.969 17.936 13.0544 19.152H12.3184C12.2117 18.4267 12.041 17.744 11.8064 17.104C11.593 16.4427 11.241 15.92 10.7504 15.536C10.281 15.1307 9.59837 14.928 8.70237 14.928V14.288C9.36371 14.288 9.89704 14.1493 10.3024 13.872C10.729 13.5947 11.0704 13.2427 11.3264 12.816C11.5824 12.368 11.7744 11.9093 11.9024 11.44C12.0517 10.9493 12.1584 10.4907 12.2224 10.064H12.9584ZM31.2944 9.008C32.1904 9.008 32.905 9.12533 33.4384 9.36C33.993 9.59467 34.441 9.89333 34.7824 10.256C35.1664 10.6613 35.433 11.184 35.5824 11.824C35.753 12.464 35.8384 13.328 35.8384 14.416V23.024C35.8384 23.92 35.9984 24.528 36.3184 24.848C36.6597 25.168 37.225 25.328 38.0144 25.328V26C37.6304 25.9787 37.033 25.9573 36.2224 25.936C35.433 25.8933 34.665 25.872 33.9184 25.872C33.129 25.872 32.361 25.8933 31.6144 25.936C30.8677 25.9573 30.313 25.9787 29.9504 26V25.328C30.633 25.328 31.113 25.168 31.3904 24.848C31.6677 24.528 31.8064 23.92 31.8064 23.024V13.328C31.8064 12.752 31.753 12.24 31.6464 11.792C31.5397 11.3227 31.3264 10.96 31.0064 10.704C30.6864 10.4267 30.2277 10.288 29.6304 10.288C28.9264 10.288 28.297 10.48 27.7424 10.864C27.209 11.248 26.7824 11.7813 26.4624 12.464C26.1637 13.1253 26.0144 13.872 26.0144 14.704V23.024C26.0144 23.92 26.153 24.528 26.4304 24.848C26.7077 25.168 27.1877 25.328 27.8704 25.328V26C27.5077 25.9787 26.9637 25.9573 26.2384 25.936C25.513 25.8933 24.777 25.872 24.0304 25.872C23.241 25.872 22.441 25.8933 21.6304 25.936C20.8197 25.9573 20.2117 25.9787 19.8064 26V25.328C20.5957 25.328 21.1504 25.168 21.4704 24.848C21.8117 24.528 21.9824 23.92 21.9824 23.024V12.944C21.9824 11.984 21.8224 11.28 21.5024 10.832C21.2037 10.3627 20.6384 10.128 19.8064 10.128V9.456C20.489 9.52 21.1504 9.552 21.7904 9.552C22.5797 9.552 23.3264 9.52 24.0304 9.456C24.7557 9.37067 25.417 9.25333 26.0144 9.104V12.304C26.5477 11.088 27.2837 10.2347 28.2224 9.744C29.161 9.25333 30.185 9.008 31.2944 9.008ZM37.3551 32.016V31.472C38.4858 31.4293 39.3605 30.96 39.9791 30.064C40.6191 29.1893 40.9391 27.888 40.9391 26.16V12.944C40.9391 11.984 40.7898 11.28 40.4911 10.832C40.1925 10.3627 39.6165 10.128 38.7631 10.128V9.456C39.4458 9.52 40.1071 9.552 40.7471 9.552C41.5578 9.552 42.3151 9.52 43.0191 9.456C43.7231 9.37067 44.3738 9.25333 44.9711 9.104V22.768C44.9711 23.92 44.8965 24.9547 44.7471 25.872C44.5978 26.7893 44.3525 27.6 44.0111 28.304C43.6911 29.008 43.2538 29.6373 42.6991 30.192C42.1658 30.7253 41.4618 31.1627 40.5871 31.504C39.7125 31.8453 38.6351 32.016 37.3551 32.016ZM42.6671 1.296C43.4351 1.296 44.0645 1.50933 44.5551 1.936C45.0458 2.36267 45.2911 2.928 45.2911 3.632C45.2911 4.336 45.0458 4.90133 44.5551 5.328C44.0645 5.75467 43.4351 5.968 42.6671 5.968C41.8991 5.968 41.2698 5.75467 40.7791 5.328C40.2885 4.90133 40.0431 4.336 40.0431 3.632C40.0431 2.928 40.2885 2.36267 40.7791 1.936C41.2698 1.50933 41.8991 1.296 42.6671 1.296ZM55.9506 9.008C57.4226 9.008 58.724 9.30667 59.8546 9.904C61.0066 10.48 61.9133 11.408 62.5746 12.688C63.2573 13.968 63.5986 15.6533 63.5986 17.744C63.5986 19.8347 63.2573 21.52 62.5746 22.8C61.9133 24.08 61.0066 25.008 59.8546 25.584C58.724 26.16 57.4226 26.448 55.9506 26.448C54.4786 26.448 53.1666 26.16 52.0146 25.584C50.8626 25.008 49.956 24.08 49.2946 22.8C48.6333 21.52 48.3026 19.8347 48.3026 17.744C48.3026 15.6533 48.6333 13.968 49.2946 12.688C49.956 11.408 50.8626 10.48 52.0146 9.904C53.1666 9.30667 54.4786 9.008 55.9506 9.008ZM55.9506 9.648C54.948 9.648 54.1266 10.288 53.4866 11.568C52.868 12.8267 52.5586 14.8853 52.5586 17.744C52.5586 20.6027 52.868 22.6613 53.4866 23.92C54.1266 25.1787 54.948 25.808 55.9506 25.808C56.932 25.808 57.7426 25.1787 58.3826 23.92C59.0226 22.6613 59.3426 20.6027 59.3426 17.744C59.3426 14.8853 59.0226 12.8267 58.3826 11.568C57.7426 10.288 56.932 9.648 55.9506 9.648ZM80.3626 9.456V10.128C79.9573 10.2133 79.5733 10.4373 79.2106 10.8C78.8693 11.1627 78.5386 11.8027 78.2186 12.72L73.4826 25.712L72.4906 27.216L65.8986 11.92C65.4933 11.1093 65.1093 10.608 64.7466 10.416C64.384 10.224 64.0853 10.128 63.8506 10.128V9.456C64.4693 9.52 65.1093 9.57333 65.7706 9.616C66.4533 9.63733 67.136 9.648 67.8186 9.648C68.608 9.648 69.3653 9.62667 70.0906 9.584C70.8373 9.54133 71.5306 9.49867 72.1706 9.456V10.128C71.68 10.128 71.2426 10.16 70.8586 10.224C70.4746 10.288 70.2186 10.4693 70.0906 10.768C69.984 11.0453 70.0693 11.536 70.3466 12.24L74.3466 22L74.0906 22.128L76.9066 14.512C77.2693 13.5093 77.4186 12.6987 77.3546 12.08C77.2906 11.4613 77.056 10.992 76.6506 10.672C76.2453 10.352 75.6906 10.1707 74.9866 10.128V9.456C75.328 9.47733 75.6693 9.49867 76.0106 9.52C76.352 9.54133 76.6826 9.56267 77.0026 9.584C77.3226 9.584 77.632 9.584 77.9306 9.584C78.3786 9.584 78.816 9.57333 79.2426 9.552C79.6906 9.53067 80.064 9.49867 80.3626 9.456ZM73.4826 25.712L72.2666 28.944C72.0746 29.4773 71.8613 29.9253 71.6266 30.288C71.4133 30.672 71.168 30.9813 70.8906 31.216C70.5706 31.4933 70.176 31.696 69.7066 31.824C69.2586 31.952 68.7573 32.016 68.2026 32.016C67.712 32.016 67.232 31.9307 66.7626 31.76C66.3146 31.5893 65.9306 31.3333 65.6106 30.992C65.312 30.6507 65.1626 30.2027 65.1626 29.648C65.1626 29.0507 65.3653 28.5707 65.7706 28.208C66.176 27.8453 66.7306 27.664 67.4346 27.664C68.0533 27.664 68.5546 27.8133 68.9386 28.112C69.344 28.432 69.5466 28.9013 69.5466 29.52C69.5466 29.9253 69.4293 30.288 69.1946 30.608C68.96 30.928 68.6293 31.1733 68.2026 31.344C68.3093 31.3653 68.4053 31.376 68.4906 31.376C68.5973 31.3973 68.6826 31.408 68.7466 31.408C69.3653 31.408 69.92 31.2053 70.4106 30.8C70.9013 30.3947 71.296 29.7547 71.5946 28.88L72.7466 25.712H73.4826ZM93.2231 4.208V9.488H97.3191V10.128H93.2231V22.864C93.2231 23.632 93.3618 24.176 93.6391 24.496C93.9165 24.816 94.3111 24.976 94.8231 24.976C95.3138 24.976 95.7618 24.7947 96.1671 24.432C96.5725 24.048 96.9351 23.4187 97.2551 22.544L97.8311 22.8C97.5111 23.8453 97.0098 24.72 96.3271 25.424C95.6658 26.1067 94.7271 26.448 93.5111 26.448C92.7858 26.448 92.1671 26.352 91.6551 26.16C91.1645 25.9893 90.7378 25.7333 90.3751 25.392C89.9058 24.9013 89.5858 24.3147 89.4151 23.632C89.2658 22.9493 89.1911 22.0427 89.1911 20.912V10.128H86.3751V9.488H89.1911V5.04C89.9591 5.01867 90.6738 4.944 91.3351 4.816C91.9965 4.688 92.6258 4.48533 93.2231 4.208ZM104.089 0.943998V12.272C104.622 11.0773 105.358 10.2347 106.297 9.744C107.257 9.25333 108.292 9.008 109.401 9.008C110.276 9.008 110.99 9.12533 111.545 9.36C112.1 9.59467 112.548 9.89333 112.889 10.256C113.252 10.6613 113.508 11.184 113.657 11.824C113.828 12.464 113.913 13.328 113.913 14.416V23.024C113.913 23.92 114.073 24.528 114.393 24.848C114.734 25.168 115.3 25.328 116.089 25.328V26C115.705 25.9787 115.118 25.9573 114.329 25.936C113.54 25.8933 112.761 25.872 111.993 25.872C111.225 25.872 110.468 25.8933 109.721 25.936C108.974 25.9573 108.409 25.9787 108.025 26V25.328C108.708 25.328 109.188 25.168 109.465 24.848C109.742 24.528 109.881 23.92 109.881 23.024V13.328C109.881 12.752 109.828 12.24 109.721 11.792C109.614 11.3227 109.401 10.96 109.081 10.704C108.782 10.4267 108.324 10.288 107.705 10.288C107.022 10.288 106.404 10.48 105.849 10.864C105.316 11.2267 104.889 11.7493 104.569 12.432C104.249 13.0933 104.089 13.8507 104.089 14.704V23.024C104.089 23.92 104.228 24.528 104.505 24.848C104.804 25.168 105.284 25.328 105.945 25.328V26C105.582 25.9787 105.038 25.9573 104.313 25.936C103.609 25.8933 102.873 25.872 102.105 25.872C101.337 25.872 100.537 25.8933 99.7051 25.936C98.8945 25.9573 98.2865 25.9787 97.8811 26V25.328C98.6705 25.328 99.2251 25.168 99.5451 24.848C99.8865 24.528 100.057 23.92 100.057 23.024V4.784C100.057 3.824 99.8971 3.12 99.5771 2.672C99.2785 2.20267 98.7131 1.968 97.8811 1.968V1.296C98.5638 1.36 99.2251 1.392 99.8651 1.392C100.676 1.392 101.433 1.36 102.137 1.296C102.841 1.21067 103.492 1.09333 104.089 0.943998ZM121.003 1.296C121.771 1.296 122.4 1.50933 122.891 1.936C123.382 2.36267 123.627 2.928 123.627 3.632C123.627 4.336 123.382 4.90133 122.891 5.328C122.4 5.75467 121.771 5.968 121.003 5.968C120.235 5.968 119.606 5.75467 119.115 5.328C118.624 4.90133 118.379 4.336 118.379 3.632C118.379 2.928 118.624 2.36267 119.115 1.936C119.606 1.50933 120.235 1.296 121.003 1.296ZM123.243 9.104V23.024C123.243 23.92 123.403 24.528 123.723 24.848C124.064 25.168 124.63 25.328 125.419 25.328V26C125.035 25.9787 124.448 25.9573 123.659 25.936C122.87 25.8933 122.07 25.872 121.259 25.872C120.47 25.872 119.67 25.8933 118.859 25.936C118.048 25.9573 117.44 25.9787 117.035 26V25.328C117.824 25.328 118.379 25.168 118.699 24.848C119.04 24.528 119.211 23.92 119.211 23.024V12.976C119.211 11.9947 119.051 11.28 118.731 10.832C118.432 10.3627 117.867 10.128 117.035 10.128V9.456C117.718 9.52 118.379 9.552 119.019 9.552C119.808 9.552 120.555 9.52 121.259 9.456C121.984 9.37067 122.646 9.25333 123.243 9.104ZM132.671 9.008C133.567 9.008 134.335 9.136 134.975 9.392C135.615 9.648 136.084 9.872 136.383 10.064C137.108 10.5973 137.546 10.256 137.695 9.04H138.399C138.356 9.65867 138.324 10.3947 138.303 11.248C138.282 12.08 138.271 13.2 138.271 14.608H137.567C137.46 13.8187 137.258 13.0507 136.959 12.304C136.66 11.5573 136.223 10.9387 135.647 10.448C135.071 9.936 134.314 9.68 133.375 9.68C132.714 9.68 132.159 9.872 131.711 10.256C131.284 10.64 131.071 11.184 131.071 11.888C131.071 12.528 131.263 13.0933 131.647 13.584C132.031 14.0533 132.522 14.5013 133.119 14.928C133.738 15.3333 134.378 15.7813 135.039 16.272C135.807 16.784 136.49 17.3067 137.087 17.84C137.684 18.352 138.164 18.928 138.527 19.568C138.89 20.1867 139.071 20.9227 139.071 21.776C139.071 22.7573 138.794 23.6 138.239 24.304C137.706 24.9867 136.991 25.52 136.095 25.904C135.22 26.2667 134.25 26.448 133.183 26.448C132.607 26.448 132.084 26.3947 131.615 26.288C131.146 26.1813 130.73 26.0427 130.367 25.872C130.09 25.7227 129.834 25.584 129.599 25.456C129.386 25.328 129.162 25.2213 128.927 25.136C128.714 25.0293 128.522 25.072 128.351 25.264C128.202 25.456 128.084 25.776 127.999 26.224H127.295C127.338 25.5413 127.37 24.7093 127.391 23.728C127.412 22.7467 127.423 21.4453 127.423 19.824H128.127C128.276 20.9973 128.5 22.032 128.799 22.928C129.119 23.8027 129.578 24.496 130.175 25.008C130.772 25.4987 131.54 25.744 132.479 25.744C132.884 25.744 133.268 25.6587 133.631 25.488C134.015 25.3173 134.324 25.0507 134.559 24.688C134.815 24.3253 134.943 23.8347 134.943 23.216C134.943 22.2773 134.623 21.4987 133.983 20.88C133.343 20.2613 132.543 19.6 131.583 18.896C130.858 18.3627 130.175 17.84 129.535 17.328C128.916 16.816 128.404 16.24 127.999 15.6C127.615 14.96 127.423 14.2027 127.423 13.328C127.423 12.368 127.668 11.5787 128.159 10.96C128.65 10.32 129.29 9.84 130.079 9.52C130.89 9.17867 131.754 9.008 132.671 9.008ZM156.104 9.104V22.832C156.104 23.8133 156.296 24.4747 156.68 24.816C157.064 25.1573 157.725 25.328 158.664 25.328V26C158.237 25.9787 157.608 25.9573 156.776 25.936C155.965 25.8933 155.123 25.872 154.248 25.872C153.181 25.872 152.157 25.8933 151.176 25.936C150.216 25.9573 149.469 25.9787 148.936 26V25.328C149.917 25.328 150.685 25.1573 151.24 24.816C151.795 24.4533 152.072 23.7493 152.072 22.704V14.896C152.072 13.872 151.976 13.1147 151.784 12.624C151.592 12.1333 151.251 11.8133 150.76 11.664C150.269 11.5147 149.597 11.44 148.744 11.44V10.736C150.472 10.6933 151.901 10.5547 153.032 10.32C154.184 10.0853 155.208 9.68 156.104 9.104ZM166.541 9.008C167.543 9.008 168.429 9.15733 169.197 9.456C169.986 9.75467 170.605 10.1813 171.053 10.736C171.501 11.2693 171.725 11.92 171.725 12.688C171.725 13.4987 171.469 14.256 170.957 14.96C170.445 15.664 169.741 16.272 168.845 16.784C167.97 17.296 166.957 17.6907 165.805 17.968C167.106 17.9467 168.29 18.1173 169.357 18.48C170.423 18.8213 171.277 19.3653 171.917 20.112C172.557 20.8373 172.877 21.7547 172.877 22.864C172.877 23.8453 172.621 24.752 172.109 25.584C171.597 26.3947 170.903 27.12 170.029 27.76C169.175 28.4213 168.183 28.976 167.053 29.424C165.922 29.8933 164.738 30.2453 163.501 30.48C162.285 30.7147 161.079 30.832 159.885 30.832V30.224C160.909 30.1813 161.933 30 162.957 29.68C164.002 29.36 164.951 28.8907 165.805 28.272C166.679 27.6533 167.373 26.896 167.885 26C168.418 25.0827 168.685 24.0373 168.685 22.864C168.685 21.6053 168.386 20.5707 167.789 19.76C167.191 18.9493 166.37 18.5013 165.325 18.416C165.005 18.544 164.706 18.6613 164.429 18.768C164.173 18.8747 163.927 18.928 163.693 18.928C163.522 18.928 163.383 18.896 163.277 18.832C163.191 18.7467 163.149 18.6187 163.149 18.448C163.149 18.2347 163.245 18.0747 163.437 17.968C163.629 17.8613 163.853 17.808 164.109 17.808C164.279 17.808 164.45 17.8187 164.621 17.84C164.813 17.8613 165.015 17.8827 165.229 17.904C166.125 17.264 166.754 16.5707 167.117 15.824C167.501 15.056 167.693 14.288 167.693 13.52C167.693 12.5387 167.437 11.824 166.925 11.376C166.413 10.9067 165.73 10.672 164.877 10.672C164.023 10.672 163.223 10.896 162.477 11.344C161.751 11.7707 161.143 12.4213 160.653 13.296L160.109 13.008C160.471 12.304 160.919 11.6533 161.453 11.056C162.007 10.4373 162.701 9.94667 163.533 9.584C164.365 9.2 165.367 9.008 166.541 9.008ZM196.225 9.456V10.128C195.82 10.2133 195.436 10.4373 195.073 10.8C194.732 11.1627 194.401 11.8027 194.081 12.72L189.345 25.712L188.353 27.216L181.761 11.92C181.356 11.1093 180.972 10.608 180.609 10.416C180.246 10.224 179.948 10.128 179.713 10.128V9.456C180.332 9.52 180.972 9.57333 181.633 9.616C182.316 9.63733 182.998 9.648 183.681 9.648C184.47 9.648 185.228 9.62667 185.953 9.584C186.7 9.54133 187.393 9.49867 188.033 9.456V10.128C187.542 10.128 187.105 10.16 186.721 10.224C186.337 10.288 186.081 10.4693 185.953 10.768C185.846 11.0453 185.932 11.536 186.209 12.24L190.209 22L189.953 22.128L192.769 14.512C193.132 13.5093 193.281 12.6987 193.217 12.08C193.153 11.4613 192.918 10.992 192.513 10.672C192.108 10.352 191.553 10.1707 190.849 10.128V9.456C191.19 9.47733 191.532 9.49867 191.873 9.52C192.214 9.54133 192.545 9.56267 192.865 9.584C193.185 9.584 193.494 9.584 193.793 9.584C194.241 9.584 194.678 9.57333 195.105 9.552C195.553 9.53067 195.926 9.49867 196.225 9.456ZM189.345 25.712L188.129 28.944C187.937 29.4773 187.724 29.9253 187.489 30.288C187.276 30.672 187.03 30.9813 186.753 31.216C186.433 31.4933 186.038 31.696 185.569 31.824C185.121 31.952 184.62 32.016 184.065 32.016C183.574 32.016 183.094 31.9307 182.625 31.76C182.177 31.5893 181.793 31.3333 181.473 30.992C181.174 30.6507 181.025 30.2027 181.025 29.648C181.025 29.0507 181.228 28.5707 181.633 28.208C182.038 27.8453 182.593 27.664 183.297 27.664C183.916 27.664 184.417 27.8133 184.801 28.112C185.206 28.432 185.409 28.9013 185.409 29.52C185.409 29.9253 185.292 30.288 185.057 30.608C184.822 30.928 184.492 31.1733 184.065 31.344C184.172 31.3653 184.268 31.376 184.353 31.376C184.46 31.3973 184.545 31.408 184.609 31.408C185.228 31.408 185.782 31.2053 186.273 30.8C186.764 30.3947 187.158 29.7547 187.457 28.88L188.609 25.712H189.345ZM204.64 9.008C206.518 9.008 207.99 9.57333 209.056 10.704C210.123 11.8347 210.656 13.6373 210.656 16.112H199.872L199.84 15.504H206.944C206.987 14.4587 206.923 13.4987 206.752 12.624C206.582 11.728 206.304 11.0133 205.92 10.48C205.558 9.94667 205.078 9.68 204.48 9.68C203.67 9.68 202.966 10.16 202.368 11.12C201.771 12.0587 201.398 13.6053 201.248 15.76L201.376 15.952C201.334 16.2293 201.302 16.528 201.28 16.848C201.28 17.168 201.28 17.488 201.28 17.808C201.28 19.28 201.494 20.496 201.92 21.456C202.347 22.416 202.902 23.12 203.584 23.568C204.267 24.016 204.971 24.24 205.696 24.24C206.187 24.24 206.688 24.1653 207.2 24.016C207.712 23.8667 208.214 23.5893 208.704 23.184C209.195 22.7787 209.643 22.2027 210.048 21.456L210.656 21.712C210.422 22.4587 210.027 23.2053 209.472 23.952C208.939 24.6773 208.246 25.2747 207.392 25.744C206.539 26.2133 205.536 26.448 204.384 26.448C202.934 26.448 201.654 26.128 200.544 25.488C199.435 24.848 198.571 23.8987 197.952 22.64C197.334 21.36 197.024 19.8027 197.024 17.968C197.024 16.0267 197.344 14.3947 197.984 13.072C198.646 11.7493 199.552 10.7467 200.704 10.064C201.856 9.36 203.168 9.008 204.64 9.008ZM216.861 26.224C215.943 26.224 215.165 26.0533 214.525 25.712C213.885 25.3493 213.405 24.8693 213.085 24.272C212.765 23.6533 212.605 22.9707 212.605 22.224C212.605 21.3067 212.818 20.56 213.245 19.984C213.671 19.3867 214.215 18.9173 214.877 18.576C215.559 18.2133 216.274 17.9147 217.021 17.68C217.767 17.424 218.471 17.1893 219.133 16.976C219.794 16.7413 220.338 16.4747 220.765 16.176C221.191 15.8773 221.405 15.4827 221.405 14.992V12.656C221.405 11.9733 221.298 11.4187 221.085 10.992C220.893 10.544 220.594 10.2133 220.189 10C219.805 9.76533 219.314 9.648 218.717 9.648C218.269 9.648 217.799 9.712 217.309 9.84C216.818 9.968 216.413 10.2133 216.093 10.576C216.647 10.7253 217.074 11.0027 217.373 11.408C217.693 11.8133 217.853 12.304 217.853 12.88C217.853 13.5413 217.629 14.064 217.181 14.448C216.754 14.8107 216.21 14.992 215.549 14.992C214.845 14.992 214.311 14.768 213.949 14.32C213.586 13.872 213.405 13.3493 213.405 12.752C213.405 12.1547 213.554 11.664 213.853 11.28C214.151 10.8747 214.567 10.512 215.101 10.192C215.634 9.82933 216.317 9.54133 217.149 9.328C217.981 9.11467 218.887 9.008 219.869 9.008C220.807 9.008 221.639 9.11467 222.365 9.328C223.09 9.52 223.709 9.872 224.221 10.384C224.733 10.8747 225.063 11.4827 225.213 12.208C225.362 12.9333 225.437 13.8187 225.437 14.864V23.632C225.437 24.1653 225.501 24.5493 225.629 24.784C225.757 24.9973 225.959 25.104 226.237 25.104C226.45 25.104 226.653 25.0507 226.845 24.944C227.037 24.8373 227.25 24.688 227.485 24.496L227.837 25.04C227.367 25.4027 226.877 25.6907 226.365 25.904C225.853 26.1173 225.234 26.224 224.509 26.224C223.762 26.224 223.165 26.1173 222.717 25.904C222.29 25.6907 221.97 25.3813 221.757 24.976C221.565 24.5707 221.458 24.0907 221.437 23.536C220.925 24.3893 220.295 25.0507 219.549 25.52C218.802 25.9893 217.906 26.224 216.861 26.224ZM218.781 24.432C219.293 24.432 219.762 24.2933 220.189 24.016C220.637 23.7387 221.042 23.3227 221.405 22.768V16.304C221.191 16.624 220.882 16.912 220.477 17.168C220.093 17.424 219.677 17.68 219.229 17.936C218.781 18.192 218.354 18.4907 217.949 18.832C217.565 19.152 217.234 19.5573 216.957 20.048C216.701 20.5173 216.573 21.1253 216.573 21.872C216.573 22.704 216.775 23.344 217.181 23.792C217.586 24.2187 218.119 24.432 218.781 24.432ZM239.06 9.008C239.722 9.008 240.266 9.14667 240.692 9.424C241.14 9.70133 241.471 10.0533 241.684 10.48C241.898 10.9067 242.004 11.3547 242.004 11.824C242.004 12.528 241.791 13.1147 241.364 13.584C240.959 14.0533 240.415 14.288 239.732 14.288C239.092 14.288 238.57 14.1173 238.164 13.776C237.759 13.4347 237.556 12.9653 237.556 12.368C237.556 11.8347 237.684 11.3867 237.94 11.024C238.218 10.6613 238.527 10.3733 238.868 10.16C238.634 10.032 238.367 9.98933 238.068 10.032C237.556 10.0747 237.087 10.256 236.66 10.576C236.234 10.896 235.871 11.2907 235.572 11.76C235.274 12.2293 235.039 12.7307 234.868 13.264C234.719 13.7973 234.644 14.3093 234.644 14.8V22.704C234.644 23.7493 234.911 24.4533 235.444 24.816C235.978 25.1573 236.756 25.328 237.78 25.328V26C237.29 25.9787 236.575 25.9573 235.636 25.936C234.719 25.8933 233.759 25.872 232.756 25.872C231.924 25.872 231.092 25.8933 230.26 25.936C229.45 25.9573 228.842 25.9787 228.436 26V25.328C229.226 25.328 229.78 25.168 230.1 24.848C230.442 24.528 230.612 23.92 230.612 23.024V12.944C230.612 11.984 230.452 11.28 230.132 10.832C229.834 10.3627 229.268 10.128 228.436 10.128V9.456C229.119 9.52 229.78 9.552 230.42 9.552C231.21 9.552 231.956 9.52 232.66 9.456C233.386 9.37067 234.047 9.25333 234.644 9.104V12.432C234.9 11.8347 235.231 11.28 235.636 10.768C236.063 10.256 236.564 9.84 237.14 9.52C237.738 9.17867 238.378 9.008 239.06 9.008ZM257.581 9.008C259.053 9.008 260.354 9.30667 261.485 9.904C262.637 10.48 263.543 11.408 264.205 12.688C264.887 13.968 265.229 15.6533 265.229 17.744C265.229 19.8347 264.887 21.52 264.205 22.8C263.543 24.08 262.637 25.008 261.485 25.584C260.354 26.16 259.053 26.448 257.581 26.448C256.109 26.448 254.797 26.16 253.645 25.584C252.493 25.008 251.586 24.08 250.925 22.8C250.263 21.52 249.933 19.8347 249.933 17.744C249.933 15.6533 250.263 13.968 250.925 12.688C251.586 11.408 252.493 10.48 253.645 9.904C254.797 9.30667 256.109 9.008 257.581 9.008ZM257.581 9.648C256.578 9.648 255.757 10.288 255.117 11.568C254.498 12.8267 254.189 14.8853 254.189 17.744C254.189 20.6027 254.498 22.6613 255.117 23.92C255.757 25.1787 256.578 25.808 257.581 25.808C258.562 25.808 259.373 25.1787 260.013 23.92C260.653 22.6613 260.973 20.6027 260.973 17.744C260.973 14.8853 260.653 12.8267 260.013 11.568C259.373 10.288 258.562 9.648 257.581 9.648ZM272.711 0.943998V23.024C272.711 23.92 272.871 24.528 273.191 24.848C273.532 25.168 274.098 25.328 274.887 25.328V26C274.503 25.9787 273.916 25.9573 273.127 25.936C272.359 25.8933 271.57 25.872 270.759 25.872C269.97 25.872 269.159 25.8933 268.327 25.936C267.516 25.9573 266.908 25.9787 266.503 26V25.328C267.292 25.328 267.847 25.168 268.167 24.848C268.508 24.528 268.679 23.92 268.679 23.024V4.784C268.679 3.824 268.53 3.12 268.231 2.672C267.932 2.20267 267.356 1.968 266.503 1.968V1.296C267.186 1.36 267.847 1.392 268.487 1.392C269.298 1.392 270.055 1.36 270.759 1.296C271.463 1.21067 272.114 1.09333 272.711 0.943998ZM291.078 0.943998V22.512C291.078 23.472 291.238 24.1867 291.558 24.656C291.878 25.104 292.443 25.328 293.254 25.328V26C292.593 25.936 291.931 25.904 291.27 25.904C290.481 25.904 289.734 25.936 289.03 26C288.326 26.064 287.665 26.1813 287.046 26.352V4.784C287.046 3.824 286.886 3.12 286.566 2.672C286.267 2.20267 285.702 1.968 284.87 1.968V1.296C285.553 1.36 286.214 1.392 286.854 1.392C287.665 1.392 288.422 1.36 289.126 1.296C289.83 1.21067 290.481 1.09333 291.078 0.943998ZM283.43 9.008C284.369 9.008 285.211 9.18933 285.958 9.552C286.705 9.91467 287.259 10.5227 287.622 11.376L287.238 11.696C286.939 11.0773 286.534 10.6187 286.022 10.32C285.51 10.0213 284.934 9.872 284.294 9.872C283.142 9.872 282.214 10.5227 281.51 11.824C280.827 13.104 280.486 15.0773 280.486 17.744C280.486 19.536 280.625 20.9867 280.902 22.096C281.179 23.184 281.574 23.9733 282.086 24.464C282.619 24.9547 283.249 25.2 283.974 25.2C284.742 25.2 285.435 24.8907 286.054 24.272C286.673 23.632 287.035 22.7253 287.142 21.552L287.366 22.448C287.089 23.7493 286.566 24.7413 285.798 25.424C285.03 26.1067 284.017 26.448 282.758 26.448C281.478 26.448 280.337 26.1387 279.334 25.52C278.353 24.88 277.585 23.92 277.03 22.64C276.497 21.3387 276.23 19.696 276.23 17.712C276.23 15.7707 276.55 14.16 277.19 12.88C277.83 11.5787 278.694 10.608 279.782 9.968C280.87 9.328 282.086 9.008 283.43 9.008ZM305.672 1.296C306.44 1.296 307.069 1.50933 307.56 1.936C308.051 2.36267 308.296 2.928 308.296 3.632C308.296 4.336 308.051 4.90133 307.56 5.328C307.069 5.75467 306.44 5.968 305.672 5.968C304.904 5.968 304.275 5.75467 303.784 5.328C303.293 4.90133 303.048 4.336 303.048 3.632C303.048 2.928 303.293 2.36267 303.784 1.936C304.275 1.50933 304.904 1.296 305.672 1.296ZM307.912 9.104V23.024C307.912 23.92 308.072 24.528 308.392 24.848C308.733 25.168 309.299 25.328 310.088 25.328V26C309.704 25.9787 309.117 25.9573 308.328 25.936C307.539 25.8933 306.739 25.872 305.928 25.872C305.139 25.872 304.339 25.8933 303.528 25.936C302.717 25.9573 302.109 25.9787 301.704 26V25.328C302.493 25.328 303.048 25.168 303.368 24.848C303.709 24.528 303.88 23.92 303.88 23.024V12.976C303.88 11.9947 303.72 11.28 303.4 10.832C303.101 10.3627 302.536 10.128 301.704 10.128V9.456C302.387 9.52 303.048 9.552 303.688 9.552C304.477 9.552 305.224 9.52 305.928 9.456C306.653 9.37067 307.315 9.25333 307.912 9.104ZM322.716 9.008C323.612 9.008 324.326 9.12533 324.86 9.36C325.414 9.59467 325.862 9.89333 326.204 10.256C326.588 10.6613 326.854 11.184 327.004 11.824C327.174 12.464 327.26 13.328 327.26 14.416V23.024C327.26 23.92 327.42 24.528 327.74 24.848C328.081 25.168 328.646 25.328 329.436 25.328V26C329.052 25.9787 328.454 25.9573 327.644 25.936C326.854 25.8933 326.086 25.872 325.34 25.872C324.55 25.872 323.782 25.8933 323.036 25.936C322.289 25.9573 321.734 25.9787 321.372 26V25.328C322.054 25.328 322.534 25.168 322.812 24.848C323.089 24.528 323.228 23.92 323.228 23.024V13.328C323.228 12.752 323.174 12.24 323.068 11.792C322.961 11.3227 322.748 10.96 322.428 10.704C322.108 10.4267 321.649 10.288 321.052 10.288C320.348 10.288 319.718 10.48 319.164 10.864C318.63 11.248 318.204 11.7813 317.884 12.464C317.585 13.1253 317.436 13.872 317.436 14.704V23.024C317.436 23.92 317.574 24.528 317.852 24.848C318.129 25.168 318.609 25.328 319.292 25.328V26C318.929 25.9787 318.385 25.9573 317.66 25.936C316.934 25.8933 316.198 25.872 315.452 25.872C314.662 25.872 313.862 25.8933 313.052 25.936C312.241 25.9573 311.633 25.9787 311.228 26V25.328C312.017 25.328 312.572 25.168 312.892 24.848C313.233 24.528 313.404 23.92 313.404 23.024V12.944C313.404 11.984 313.244 11.28 312.924 10.832C312.625 10.3627 312.06 10.128 311.228 10.128V9.456C311.91 9.52 312.572 9.552 313.212 9.552C314.001 9.552 314.748 9.52 315.452 9.456C316.177 9.37067 316.838 9.25333 317.436 9.104V12.304C317.969 11.088 318.705 10.2347 319.644 9.744C320.582 9.25333 321.606 9.008 322.716 9.008ZM336.488 9.008C337.384 9.008 338.152 9.136 338.792 9.392C339.432 9.648 339.902 9.872 340.2 10.064C340.926 10.5973 341.363 10.256 341.512 9.04H342.216C342.174 9.65867 342.142 10.3947 342.12 11.248C342.099 12.08 342.088 13.2 342.088 14.608H341.384C341.278 13.8187 341.075 13.0507 340.776 12.304C340.478 11.5573 340.04 10.9387 339.464 10.448C338.888 9.936 338.131 9.68 337.192 9.68C336.531 9.68 335.976 9.872 335.528 10.256C335.102 10.64 334.888 11.184 334.888 11.888C334.888 12.528 335.08 13.0933 335.464 13.584C335.848 14.0533 336.339 14.5013 336.936 14.928C337.555 15.3333 338.195 15.7813 338.856 16.272C339.624 16.784 340.307 17.3067 340.904 17.84C341.502 18.352 341.982 18.928 342.344 19.568C342.707 20.1867 342.888 20.9227 342.888 21.776C342.888 22.7573 342.611 23.6 342.056 24.304C341.523 24.9867 340.808 25.52 339.912 25.904C339.038 26.2667 338.067 26.448 337 26.448C336.424 26.448 335.902 26.3947 335.432 26.288C334.963 26.1813 334.547 26.0427 334.184 25.872C333.907 25.7227 333.651 25.584 333.416 25.456C333.203 25.328 332.979 25.2213 332.744 25.136C332.531 25.0293 332.339 25.072 332.168 25.264C332.019 25.456 331.902 25.776 331.816 26.224H331.112C331.155 25.5413 331.187 24.7093 331.208 23.728C331.23 22.7467 331.24 21.4453 331.24 19.824H331.944C332.094 20.9973 332.318 22.032 332.616 22.928C332.936 23.8027 333.395 24.496 333.992 25.008C334.59 25.4987 335.358 25.744 336.296 25.744C336.702 25.744 337.086 25.6587 337.448 25.488C337.832 25.3173 338.142 25.0507 338.376 24.688C338.632 24.3253 338.76 23.8347 338.76 23.216C338.76 22.2773 338.44 21.4987 337.8 20.88C337.16 20.2613 336.36 19.6 335.4 18.896C334.675 18.3627 333.992 17.84 333.352 17.328C332.734 16.816 332.222 16.24 331.816 15.6C331.432 14.96 331.24 14.2027 331.24 13.328C331.24 12.368 331.486 11.5787 331.976 10.96C332.467 10.32 333.107 9.84 333.896 9.52C334.707 9.17867 335.571 9.008 336.488 9.008ZM348.649 1.296C349.417 1.296 350.047 1.50933 350.537 1.936C351.028 2.36267 351.273 2.928 351.273 3.632C351.273 4.336 351.028 4.90133 350.537 5.328C350.047 5.75467 349.417 5.968 348.649 5.968C347.881 5.968 347.252 5.75467 346.761 5.328C346.271 4.90133 346.025 4.336 346.025 3.632C346.025 2.928 346.271 2.36267 346.761 1.936C347.252 1.50933 347.881 1.296 348.649 1.296ZM350.889 9.104V23.024C350.889 23.92 351.049 24.528 351.369 24.848C351.711 25.168 352.276 25.328 353.065 25.328V26C352.681 25.9787 352.095 25.9573 351.305 25.936C350.516 25.8933 349.716 25.872 348.905 25.872C348.116 25.872 347.316 25.8933 346.505 25.936C345.695 25.9573 345.087 25.9787 344.681 26V25.328C345.471 25.328 346.025 25.168 346.345 24.848C346.687 24.528 346.857 23.92 346.857 23.024V12.976C346.857 11.9947 346.697 11.28 346.377 10.832C346.079 10.3627 345.513 10.128 344.681 10.128V9.456C345.364 9.52 346.025 9.552 346.665 9.552C347.455 9.552 348.201 9.52 348.905 9.456C349.631 9.37067 350.292 9.25333 350.889 9.104ZM360.285 32.016C359.026 32.016 357.885 31.8987 356.861 31.664C355.837 31.4293 355.026 31.0773 354.429 30.608C353.832 30.16 353.533 29.584 353.533 28.88C353.533 28.1973 353.832 27.5893 354.429 27.056C355.026 26.5227 355.901 26.1173 357.053 25.84L357.277 26.352C356.872 26.5867 356.562 26.9067 356.349 27.312C356.136 27.7173 356.029 28.144 356.029 28.592C356.029 29.5093 356.445 30.2133 357.277 30.704C358.13 31.216 359.261 31.472 360.669 31.472C361.629 31.472 362.514 31.344 363.325 31.088C364.136 30.832 364.786 30.4373 365.277 29.904C365.768 29.3707 366.013 28.7093 366.013 27.92C366.013 27.2587 365.768 26.704 365.277 26.256C364.808 25.808 363.858 25.584 362.429 25.584H360.317C359.528 25.584 358.802 25.4987 358.141 25.328C357.501 25.1573 356.989 24.88 356.605 24.496C356.221 24.112 356.029 23.5787 356.029 22.896C356.029 22.064 356.37 21.3173 357.053 20.656C357.736 19.9733 358.802 19.312 360.253 18.672L360.605 18.96C360.072 19.2373 359.592 19.536 359.165 19.856C358.76 20.176 358.557 20.5813 358.557 21.072C358.557 21.7547 359.026 22.096 359.965 22.096H363.581C364.69 22.096 365.672 22.2347 366.525 22.512C367.4 22.7893 368.093 23.2267 368.605 23.824C369.117 24.4213 369.373 25.2107 369.373 26.192C369.373 27.216 369.042 28.1653 368.381 29.04C367.72 29.936 366.717 30.6507 365.373 31.184C364.05 31.7387 362.354 32.016 360.285 32.016ZM360.573 19.184C359.421 19.184 358.376 19.0133 357.437 18.672C356.52 18.3093 355.794 17.7547 355.261 17.008C354.728 16.24 354.461 15.2693 354.461 14.096C354.461 12.9227 354.728 11.9627 355.261 11.216C355.794 10.4693 356.52 9.91467 357.437 9.552C358.376 9.18933 359.421 9.008 360.573 9.008C361.746 9.008 362.792 9.18933 363.709 9.552C364.626 9.91467 365.352 10.4693 365.885 11.216C366.418 11.9627 366.685 12.9227 366.685 14.096C366.685 15.2693 366.418 16.24 365.885 17.008C365.352 17.7547 364.626 18.3093 363.709 18.672C362.792 19.0133 361.746 19.184 360.573 19.184ZM360.573 18.608C361.213 18.608 361.714 18.288 362.077 17.648C362.461 16.9867 362.653 15.8027 362.653 14.096C362.653 12.3893 362.461 11.216 362.077 10.576C361.714 9.91467 361.213 9.584 360.573 9.584C359.933 9.584 359.421 9.91467 359.037 10.576C358.674 11.216 358.493 12.3893 358.493 14.096C358.493 15.8027 358.674 16.9867 359.037 17.648C359.421 18.288 359.933 18.608 360.573 18.608ZM365.405 11.728L364.797 11.504C365.117 10.7147 365.64 10.0533 366.365 9.52C367.09 8.96533 367.858 8.688 368.669 8.688C369.288 8.688 369.768 8.85867 370.109 9.2C370.472 9.54133 370.653 10.0213 370.653 10.64C370.653 11.28 370.482 11.7493 370.141 12.048C369.8 12.3467 369.426 12.496 369.021 12.496C368.658 12.496 368.328 12.3787 368.029 12.144C367.73 11.888 367.56 11.504 367.517 10.992C367.474 10.4587 367.645 9.79733 368.029 9.008L368.349 9.136C367.517 9.456 366.898 9.808 366.493 10.192C366.088 10.576 365.725 11.088 365.405 11.728ZM377.307 0.943998V12.272C377.84 11.0773 378.576 10.2347 379.515 9.744C380.475 9.25333 381.509 9.008 382.619 9.008C383.493 9.008 384.208 9.12533 384.763 9.36C385.317 9.59467 385.765 9.89333 386.107 10.256C386.469 10.6613 386.725 11.184 386.875 11.824C387.045 12.464 387.131 13.328 387.131 14.416V23.024C387.131 23.92 387.291 24.528 387.611 24.848C387.952 25.168 388.517 25.328 389.307 25.328V26C388.923 25.9787 388.336 25.9573 387.547 25.936C386.757 25.8933 385.979 25.872 385.211 25.872C384.443 25.872 383.685 25.8933 382.939 25.936C382.192 25.9573 381.627 25.9787 381.243 26V25.328C381.925 25.328 382.405 25.168 382.683 24.848C382.96 24.528 383.099 23.92 383.099 23.024V13.328C383.099 12.752 383.045 12.24 382.939 11.792C382.832 11.3227 382.619 10.96 382.299 10.704C382 10.4267 381.541 10.288 380.923 10.288C380.24 10.288 379.621 10.48 379.067 10.864C378.533 11.2267 378.107 11.7493 377.787 12.432C377.467 13.0933 377.307 13.8507 377.307 14.704V23.024C377.307 23.92 377.445 24.528 377.723 24.848C378.021 25.168 378.501 25.328 379.163 25.328V26C378.8 25.9787 378.256 25.9573 377.531 25.936C376.827 25.8933 376.091 25.872 375.323 25.872C374.555 25.872 373.755 25.8933 372.923 25.936C372.112 25.9573 371.504 25.9787 371.099 26V25.328C371.888 25.328 372.443 25.168 372.763 24.848C373.104 24.528 373.275 23.92 373.275 23.024V4.784C373.275 3.824 373.115 3.12 372.795 2.672C372.496 2.20267 371.931 1.968 371.099 1.968V1.296C371.781 1.36 372.443 1.392 373.083 1.392C373.893 1.392 374.651 1.36 375.355 1.296C376.059 1.21067 376.709 1.09333 377.307 0.943998ZM396.301 4.208V9.488H400.397V10.128H396.301V22.864C396.301 23.632 396.439 24.176 396.717 24.496C396.994 24.816 397.389 24.976 397.901 24.976C398.391 24.976 398.839 24.7947 399.245 24.432C399.65 24.048 400.013 23.4187 400.333 22.544L400.909 22.8C400.589 23.8453 400.087 24.72 399.405 25.424C398.743 26.1067 397.805 26.448 396.589 26.448C395.863 26.448 395.245 26.352 394.733 26.16C394.242 25.9893 393.815 25.7333 393.453 25.392C392.983 24.9013 392.663 24.3147 392.493 23.632C392.343 22.9493 392.269 22.0427 392.269 20.912V10.128H389.453V9.488H392.269V5.04C393.037 5.01867 393.751 4.944 394.413 4.816C395.074 4.688 395.703 4.48533 396.301 4.208ZM409.439 0.975998C410.143 0.975998 410.751 1.072 411.263 1.264C411.796 1.43467 412.255 1.66933 412.639 1.968C412.959 2.224 413.215 2.544 413.407 2.928C413.62 3.312 413.727 3.73867 413.727 4.208C413.727 4.784 413.524 5.27467 413.119 5.68C412.735 6.08533 412.244 6.288 411.647 6.288C411.007 6.288 410.473 6.10667 410.047 5.744C409.641 5.36 409.439 4.83733 409.439 4.176C409.439 3.664 409.577 3.22667 409.855 2.864C410.153 2.48 410.569 2.21333 411.103 2.064C411.039 1.91467 410.9 1.78666 410.687 1.68C410.473 1.57333 410.185 1.52 409.823 1.52C409.396 1.52 409.023 1.60533 408.703 1.776C408.404 1.94667 408.159 2.18133 407.967 2.48C407.753 2.84267 407.604 3.376 407.519 4.08C407.433 4.784 407.391 5.85067 407.391 7.28V9.488H410.815V10.128H407.391V22.704C407.391 23.7493 407.668 24.4533 408.223 24.816C408.799 25.1573 409.567 25.328 410.527 25.328V26C409.993 25.9787 409.247 25.9573 408.287 25.936C407.327 25.8933 406.303 25.872 405.215 25.872C404.447 25.872 403.679 25.8933 402.911 25.936C402.143 25.9573 401.567 25.9787 401.183 26V25.328C401.972 25.328 402.527 25.168 402.847 24.848C403.188 24.528 403.359 23.92 403.359 23.024V10.128H401.055V9.488H403.359C403.359 8.22933 403.423 7.184 403.551 6.352C403.679 5.49867 403.871 4.77333 404.127 4.176C404.404 3.57867 404.777 3.04533 405.247 2.576C405.695 2.10667 406.281 1.72267 407.007 1.424C407.753 1.12533 408.564 0.975998 409.439 0.975998ZM427.35 9.104V22.544C427.35 23.504 427.51 24.2187 427.83 24.688C428.15 25.136 428.715 25.36 429.526 25.36V26.032C428.865 25.968 428.203 25.936 427.542 25.936C426.753 25.936 425.995 25.968 425.27 26.032C424.566 26.096 423.915 26.2133 423.318 26.384V23.184C422.785 24.3573 422.049 25.2 421.11 25.712C420.193 26.2027 419.201 26.448 418.134 26.448C417.302 26.448 416.598 26.3307 416.022 26.096C415.467 25.8827 415.019 25.584 414.678 25.2C414.315 24.7947 414.059 24.2613 413.91 23.6C413.761 22.9387 413.686 22.0853 413.686 21.04V12.944C413.686 11.984 413.526 11.28 413.206 10.832C412.907 10.3627 412.342 10.128 411.51 10.128V9.456C412.193 9.52 412.854 9.552 413.494 9.552C414.283 9.552 415.03 9.52 415.734 9.456C416.459 9.37067 417.121 9.25333 417.718 9.104V22.16C417.718 22.736 417.761 23.248 417.846 23.696C417.953 24.144 418.155 24.5067 418.454 24.784C418.753 25.04 419.201 25.168 419.798 25.168C420.459 25.168 421.057 24.976 421.59 24.592C422.123 24.208 422.539 23.6853 422.838 23.024C423.158 22.3627 423.318 21.616 423.318 20.784V12.944C423.318 11.984 423.158 11.28 422.838 10.832C422.539 10.3627 421.974 10.128 421.142 10.128V9.456C421.825 9.52 422.486 9.552 423.126 9.552C423.915 9.552 424.662 9.52 425.366 9.456C426.091 9.37067 426.753 9.25333 427.35 9.104ZM436.684 0.943998V23.024C436.684 23.92 436.844 24.528 437.164 24.848C437.505 25.168 438.07 25.328 438.86 25.328V26C438.476 25.9787 437.889 25.9573 437.1 25.936C436.332 25.8933 435.542 25.872 434.732 25.872C433.942 25.872 433.132 25.8933 432.3 25.936C431.489 25.9573 430.881 25.9787 430.476 26V25.328C431.265 25.328 431.82 25.168 432.14 24.848C432.481 24.528 432.652 23.92 432.652 23.024V4.784C432.652 3.824 432.502 3.12 432.204 2.672C431.905 2.20267 431.329 1.968 430.476 1.968V1.296C431.158 1.36 431.82 1.392 432.46 1.392C433.27 1.392 434.028 1.36 434.732 1.296C435.436 1.21067 436.086 1.09333 436.684 0.943998ZM465.79 3.344C465.705 4.32533 465.641 5.28533 465.598 6.224C465.577 7.14133 465.566 7.84533 465.566 8.336C465.566 8.82667 465.577 9.28533 465.598 9.712C465.619 10.1387 465.641 10.512 465.662 10.832H464.926C464.627 9.12533 464.265 7.792 463.838 6.832C463.411 5.85067 462.846 5.14667 462.142 4.72C461.459 4.29333 460.553 4.08 459.422 4.08H458.398V22.32C458.398 23.1947 458.473 23.8453 458.622 24.272C458.793 24.6987 459.123 24.9867 459.614 25.136C460.105 25.264 460.819 25.3387 461.758 25.36V26C461.118 25.9573 460.286 25.936 459.262 25.936C458.238 25.9147 457.193 25.904 456.126 25.904C455.017 25.904 453.971 25.9147 452.99 25.936C452.03 25.936 451.251 25.9573 450.654 26V25.36C451.571 25.3387 452.275 25.264 452.766 25.136C453.257 24.9867 453.587 24.6987 453.758 24.272C453.929 23.8453 454.014 23.1947 454.014 22.32V4.08H452.958C451.849 4.08 450.942 4.29333 450.238 4.72C449.534 5.14667 448.969 5.85067 448.542 6.832C448.115 7.792 447.763 9.12533 447.486 10.832H446.75C446.793 10.512 446.814 10.1387 446.814 9.712C446.835 9.28533 446.846 8.82667 446.846 8.336C446.846 7.84533 446.825 7.14133 446.782 6.224C446.761 5.28533 446.707 4.32533 446.622 3.344C447.561 3.36533 448.595 3.38667 449.726 3.408C450.857 3.42933 451.987 3.44 453.118 3.44C454.249 3.44 455.283 3.44 456.222 3.44C457.139 3.44 458.163 3.44 459.294 3.44C460.425 3.44 461.555 3.42933 462.686 3.408C463.817 3.38667 464.851 3.36533 465.79 3.344ZM484.201 3.344C484.116 4.21867 484.052 5.072 484.009 5.904C483.988 6.71467 483.977 7.33333 483.977 7.76C483.977 8.16533 483.988 8.56 484.009 8.944C484.03 9.30667 484.052 9.616 484.073 9.872H483.337C483.166 8.4 482.889 7.248 482.505 6.416C482.121 5.56267 481.598 4.96533 480.937 4.624C480.297 4.26133 479.454 4.08 478.409 4.08H476.649C476.009 4.08 475.518 4.13333 475.177 4.24C474.836 4.34667 474.601 4.57067 474.473 4.912C474.366 5.25333 474.313 5.776 474.313 6.48V22.864C474.313 23.5467 474.366 24.0693 474.473 24.432C474.601 24.7733 474.836 24.9973 475.177 25.104C475.518 25.2107 476.009 25.264 476.649 25.264H478.473C479.561 25.264 480.468 25.0613 481.193 24.656C481.94 24.2507 482.537 23.5893 482.985 22.672C483.433 21.7333 483.764 20.4533 483.977 18.832H484.713C484.649 19.4933 484.617 20.3467 484.617 21.392C484.617 21.84 484.628 22.4907 484.649 23.344C484.692 24.1973 484.756 25.0827 484.841 26C483.753 25.9573 482.526 25.936 481.161 25.936C479.796 25.9147 478.58 25.904 477.513 25.904C477.022 25.904 476.372 25.904 475.561 25.904C474.772 25.904 473.908 25.9147 472.969 25.936C472.052 25.936 471.113 25.9467 470.153 25.968C469.214 25.968 468.318 25.9787 467.465 26V25.36C468.169 25.3173 468.692 25.232 469.033 25.104C469.396 24.976 469.63 24.72 469.737 24.336C469.865 23.952 469.929 23.376 469.929 22.608V6.736C469.929 5.94666 469.865 5.37067 469.737 5.008C469.63 4.624 469.396 4.368 469.033 4.24C468.692 4.09067 468.169 4.00533 467.465 3.984V3.344C468.318 3.36533 469.214 3.38667 470.153 3.408C471.113 3.408 472.052 3.41867 472.969 3.44C473.908 3.44 474.772 3.44 475.561 3.44C476.372 3.44 477.022 3.44 477.513 3.44C478.494 3.44 479.604 3.44 480.841 3.44C482.1 3.41867 483.22 3.38667 484.201 3.344ZM479.049 14.288C479.049 14.288 479.049 14.3947 479.049 14.608C479.049 14.8213 479.049 14.928 479.049 14.928H473.353C473.353 14.928 473.353 14.8213 473.353 14.608C473.353 14.3947 473.353 14.288 473.353 14.288H479.049ZM479.977 10.064C479.892 11.28 479.849 12.208 479.849 12.848C479.87 13.488 479.881 14.0747 479.881 14.608C479.881 15.1413 479.892 15.728 479.913 16.368C479.934 17.008 479.988 17.936 480.073 19.152H479.337C479.23 18.4267 479.06 17.744 478.825 17.104C478.612 16.4427 478.26 15.92 477.769 15.536C477.3 15.1307 476.617 14.928 475.721 14.928V14.288C476.382 14.288 476.916 14.1493 477.321 13.872C477.748 13.5947 478.089 13.2427 478.345 12.816C478.601 12.368 478.793 11.9093 478.921 11.44C479.07 10.9493 479.177 10.4907 479.241 10.064H479.977ZM496.649 3.344C500.745 3.344 503.774 4.304 505.737 6.224C507.721 8.12267 508.713 10.8533 508.713 14.416C508.713 16.7413 508.222 18.7787 507.241 20.528C506.281 22.256 504.884 23.6 503.049 24.56C501.214 25.52 498.985 26 496.361 26C496.041 26 495.604 25.9893 495.049 25.968C494.516 25.9467 493.95 25.936 493.353 25.936C492.777 25.9147 492.244 25.904 491.753 25.904C490.878 25.904 490.025 25.9147 489.193 25.936C488.361 25.936 487.678 25.9573 487.145 26V25.36C487.849 25.3173 488.372 25.232 488.713 25.104C489.076 24.976 489.31 24.72 489.417 24.336C489.545 23.952 489.609 23.376 489.609 22.608V6.736C489.609 5.94666 489.545 5.37067 489.417 5.008C489.31 4.624 489.076 4.368 488.713 4.24C488.372 4.09067 487.849 4.00533 487.145 3.984V3.344C487.678 3.36533 488.361 3.39733 489.193 3.44C490.025 3.46133 490.857 3.46133 491.689 3.44C492.457 3.41867 493.321 3.39733 494.281 3.376C495.241 3.35467 496.03 3.344 496.649 3.344ZM496.361 3.92C495.38 3.92 494.74 4.10133 494.441 4.464C494.142 4.82667 493.993 5.56267 493.993 6.672V22.672C493.993 23.7813 494.142 24.5173 494.441 24.88C494.761 25.2427 495.412 25.424 496.393 25.424C498.377 25.424 499.924 25.008 501.033 24.176C502.164 23.3227 502.953 22.0853 503.401 20.464C503.87 18.8427 504.105 16.8693 504.105 14.544C504.105 12.1547 503.849 10.1813 503.337 8.624C502.846 7.04533 502.036 5.872 500.905 5.104C499.774 4.31466 498.26 3.92 496.361 3.92ZM523.764 4.208V9.488H527.86V10.128H523.764V22.864C523.764 23.632 523.903 24.176 524.18 24.496C524.458 24.816 524.852 24.976 525.364 24.976C525.855 24.976 526.303 24.7947 526.708 24.432C527.114 24.048 527.476 23.4187 527.796 22.544L528.372 22.8C528.052 23.8453 527.551 24.72 526.868 25.424C526.207 26.1067 525.268 26.448 524.052 26.448C523.327 26.448 522.708 26.352 522.196 26.16C521.706 25.9893 521.279 25.7333 520.916 25.392C520.447 24.9013 520.127 24.3147 519.956 23.632C519.807 22.9493 519.732 22.0427 519.732 20.912V10.128H516.916V9.488H519.732V5.04C520.5 5.01867 521.215 4.944 521.876 4.816C522.538 4.688 523.167 4.48533 523.764 4.208ZM533.094 26.224C532.177 26.224 531.398 26.0533 530.758 25.712C530.118 25.3493 529.638 24.8693 529.318 24.272C528.998 23.6533 528.838 22.9707 528.838 22.224C528.838 21.3067 529.052 20.56 529.478 19.984C529.905 19.3867 530.449 18.9173 531.11 18.576C531.793 18.2133 532.508 17.9147 533.254 17.68C534.001 17.424 534.705 17.1893 535.366 16.976C536.028 16.7413 536.572 16.4747 536.998 16.176C537.425 15.8773 537.638 15.4827 537.638 14.992V12.656C537.638 11.9733 537.532 11.4187 537.318 10.992C537.126 10.544 536.828 10.2133 536.422 10C536.038 9.76533 535.548 9.648 534.95 9.648C534.502 9.648 534.033 9.712 533.542 9.84C533.052 9.968 532.646 10.2133 532.326 10.576C532.881 10.7253 533.308 11.0027 533.606 11.408C533.926 11.8133 534.086 12.304 534.086 12.88C534.086 13.5413 533.862 14.064 533.414 14.448C532.988 14.8107 532.444 14.992 531.782 14.992C531.078 14.992 530.545 14.768 530.182 14.32C529.82 13.872 529.638 13.3493 529.638 12.752C529.638 12.1547 529.788 11.664 530.086 11.28C530.385 10.8747 530.801 10.512 531.334 10.192C531.868 9.82933 532.55 9.54133 533.382 9.328C534.214 9.11467 535.121 9.008 536.102 9.008C537.041 9.008 537.873 9.11467 538.598 9.328C539.324 9.52 539.942 9.872 540.454 10.384C540.966 10.8747 541.297 11.4827 541.446 12.208C541.596 12.9333 541.67 13.8187 541.67 14.864V23.632C541.67 24.1653 541.734 24.5493 541.862 24.784C541.99 24.9973 542.193 25.104 542.47 25.104C542.684 25.104 542.886 25.0507 543.078 24.944C543.27 24.8373 543.484 24.688 543.718 24.496L544.07 25.04C543.601 25.4027 543.11 25.6907 542.598 25.904C542.086 26.1173 541.468 26.224 540.742 26.224C539.996 26.224 539.398 26.1173 538.95 25.904C538.524 25.6907 538.204 25.3813 537.99 24.976C537.798 24.5707 537.692 24.0907 537.67 23.536C537.158 24.3893 536.529 25.0507 535.782 25.52C535.036 25.9893 534.14 26.224 533.094 26.224ZM535.014 24.432C535.526 24.432 535.996 24.2933 536.422 24.016C536.87 23.7387 537.276 23.3227 537.638 22.768V16.304C537.425 16.624 537.116 16.912 536.71 17.168C536.326 17.424 535.91 17.68 535.462 17.936C535.014 18.192 534.588 18.4907 534.182 18.832C533.798 19.152 533.468 19.5573 533.19 20.048C532.934 20.5173 532.806 21.1253 532.806 21.872C532.806 22.704 533.009 23.344 533.414 23.792C533.82 24.2187 534.353 24.432 535.014 24.432ZM550.686 0.943998V23.024C550.686 23.92 550.846 24.528 551.166 24.848C551.507 25.168 552.073 25.328 552.862 25.328V26C552.478 25.9787 551.891 25.9573 551.102 25.936C550.334 25.8933 549.545 25.872 548.734 25.872C547.945 25.872 547.134 25.8933 546.302 25.936C545.491 25.9573 544.883 25.9787 544.478 26V25.328C545.267 25.328 545.822 25.168 546.142 24.848C546.483 24.528 546.654 23.92 546.654 23.024V4.784C546.654 3.824 546.505 3.12 546.206 2.672C545.907 2.20267 545.331 1.968 544.478 1.968V1.296C545.161 1.36 545.822 1.392 546.462 1.392C547.273 1.392 548.03 1.36 548.734 1.296C549.438 1.21067 550.089 1.09333 550.686 0.943998ZM560.147 0.943998V23.024C560.147 23.92 560.296 24.528 560.595 24.848C560.893 25.168 561.405 25.328 562.131 25.328V26C561.768 25.9787 561.213 25.9573 560.467 25.936C559.72 25.8933 558.963 25.872 558.195 25.872C557.405 25.872 556.595 25.8933 555.763 25.936C554.952 25.9573 554.344 25.9787 553.939 26V25.328C554.728 25.328 555.283 25.168 555.603 24.848C555.944 24.528 556.115 23.92 556.115 23.024V4.784C556.115 3.824 555.955 3.12 555.635 2.672C555.336 2.20267 554.771 1.968 553.939 1.968V1.296C554.621 1.36 555.283 1.392 555.923 1.392C556.733 1.392 557.491 1.36 558.195 1.296C558.899 1.21067 559.549 1.09333 560.147 0.943998ZM570.515 9.456V10.096C569.875 10.224 569.256 10.4693 568.659 10.832C568.061 11.1733 567.475 11.6533 566.899 12.272L563.731 15.568L564.083 14.864L569.715 23.664C570.013 24.0907 570.291 24.4533 570.547 24.752C570.824 25.0293 571.165 25.2213 571.571 25.328V26C571.293 25.9787 570.856 25.9573 570.259 25.936C569.661 25.8933 569.064 25.872 568.467 25.872C567.741 25.872 566.995 25.8933 566.227 25.936C565.48 25.9573 564.915 25.9787 564.531 26V25.328C564.957 25.328 565.245 25.232 565.395 25.04C565.565 24.8267 565.544 24.56 565.331 24.24L562.003 18.64C561.704 18.1707 561.416 17.872 561.139 17.744C560.861 17.5947 560.488 17.52 560.019 17.52V16.88C560.552 16.8373 560.989 16.7413 561.331 16.592C561.693 16.4427 562.035 16.208 562.355 15.888L564.755 13.488C565.459 12.784 565.811 12.1867 565.811 11.696C565.832 11.2053 565.608 10.832 565.139 10.576C564.691 10.2987 564.104 10.1387 563.379 10.096V9.456C563.955 9.47733 564.595 9.50933 565.299 9.552C566.003 9.57333 566.6 9.584 567.091 9.584C567.475 9.584 567.88 9.584 568.307 9.584C568.755 9.56267 569.171 9.54133 569.555 9.52C569.96 9.49867 570.28 9.47733 570.515 9.456ZM154.521 57.008C156.185 57.008 157.571 57.712 158.681 59.12C159.811 60.5067 160.377 62.6187 160.377 65.456C160.377 67.568 160.046 69.296 159.385 70.64C158.723 71.9627 157.838 72.9333 156.729 73.552C155.619 74.1493 154.414 74.448 153.113 74.448C152.195 74.448 151.31 74.256 150.457 73.872C149.625 73.4667 148.953 72.8373 148.441 71.984H148.985C149.411 72.5813 149.923 73.0293 150.521 73.328C151.139 73.6053 151.758 73.744 152.377 73.744C153.635 73.744 154.574 73.0933 155.193 71.792C155.811 70.4693 156.121 68.4533 156.121 65.744C156.121 63.952 155.993 62.512 155.737 61.424C155.502 60.3147 155.15 59.5147 154.681 59.024C154.211 58.512 153.625 58.256 152.921 58.256C152.089 58.256 151.321 58.608 150.617 59.312C149.934 60.016 149.539 61.0187 149.433 62.32L149.209 61.424C149.55 60.016 150.19 58.928 151.129 58.16C152.089 57.392 153.219 57.008 154.521 57.008ZM149.561 48.944V73.04C149.113 73.0613 148.654 73.1467 148.185 73.296C147.715 73.424 147.278 73.5947 146.873 73.808C146.467 74 146.115 74.2347 145.817 74.512L145.305 74.256C145.411 73.9573 145.475 73.6587 145.497 73.36C145.518 73.0613 145.529 72.752 145.529 72.432V52.784C145.529 51.824 145.369 51.12 145.049 50.672C144.75 50.2027 144.185 49.968 143.353 49.968V49.296C144.035 49.36 144.697 49.392 145.337 49.392C146.147 49.392 146.905 49.36 147.609 49.296C148.313 49.2107 148.963 49.0933 149.561 48.944ZM177.189 57.456V58.128C176.784 58.2133 176.4 58.4373 176.037 58.8C175.696 59.1627 175.365 59.8027 175.045 60.72L170.309 73.712L169.317 75.216L162.725 59.92C162.32 59.1093 161.936 58.608 161.573 58.416C161.211 58.224 160.912 58.128 160.677 58.128V57.456C161.296 57.52 161.936 57.5733 162.597 57.616C163.28 57.6373 163.963 57.648 164.645 57.648C165.435 57.648 166.192 57.6267 166.917 57.584C167.664 57.5413 168.357 57.4987 168.997 57.456V58.128C168.507 58.128 168.069 58.16 167.685 58.224C167.301 58.288 167.045 58.4693 166.917 58.768C166.811 59.0453 166.896 59.536 167.173 60.24L171.173 70L170.917 70.128L173.733 62.512C174.096 61.5093 174.245 60.6987 174.181 60.08C174.117 59.4613 173.883 58.992 173.477 58.672C173.072 58.352 172.517 58.1707 171.813 58.128V57.456C172.155 57.4773 172.496 57.4987 172.837 57.52C173.179 57.5413 173.509 57.5627 173.829 57.584C174.149 57.584 174.459 57.584 174.757 57.584C175.205 57.584 175.643 57.5733 176.069 57.552C176.517 57.5307 176.891 57.4987 177.189 57.456ZM170.309 73.712L169.093 76.944C168.901 77.4773 168.688 77.9253 168.453 78.288C168.24 78.672 167.995 78.9813 167.717 79.216C167.397 79.4933 167.003 79.696 166.533 79.824C166.085 79.952 165.584 80.016 165.029 80.016C164.539 80.016 164.059 79.9307 163.589 79.76C163.141 79.5893 162.757 79.3333 162.437 78.992C162.139 78.6507 161.989 78.2027 161.989 77.648C161.989 77.0507 162.192 76.5707 162.597 76.208C163.003 75.8453 163.557 75.664 164.261 75.664C164.88 75.664 165.381 75.8133 165.765 76.112C166.171 76.432 166.373 76.9013 166.373 77.52C166.373 77.9253 166.256 78.288 166.021 78.608C165.787 78.928 165.456 79.1733 165.029 79.344C165.136 79.3653 165.232 79.376 165.317 79.376C165.424 79.3973 165.509 79.408 165.573 79.408C166.192 79.408 166.747 79.2053 167.237 78.8C167.728 78.3947 168.123 77.7547 168.421 76.88L169.573 73.712H170.309ZM194.201 51.344C198.297 51.344 201.326 52.304 203.289 54.224C205.273 56.1227 206.265 58.8533 206.265 62.416C206.265 64.7413 205.774 66.7787 204.793 68.528C203.833 70.256 202.436 71.6 200.601 72.56C198.766 73.52 196.537 74 193.913 74C193.593 74 193.156 73.9893 192.601 73.968C192.068 73.9467 191.502 73.936 190.905 73.936C190.329 73.9147 189.796 73.904 189.305 73.904C188.43 73.904 187.577 73.9147 186.745 73.936C185.913 73.936 185.23 73.9573 184.697 74V73.36C185.401 73.3173 185.924 73.232 186.265 73.104C186.628 72.976 186.862 72.72 186.969 72.336C187.097 71.952 187.161 71.376 187.161 70.608V54.736C187.161 53.9467 187.097 53.3707 186.969 53.008C186.862 52.624 186.628 52.368 186.265 52.24C185.924 52.0907 185.401 52.0053 184.697 51.984V51.344C185.23 51.3653 185.913 51.3973 186.745 51.44C187.577 51.4613 188.409 51.4613 189.241 51.44C190.009 51.4187 190.873 51.3973 191.833 51.376C192.793 51.3547 193.582 51.344 194.201 51.344ZM193.913 51.92C192.932 51.92 192.292 52.1013 191.993 52.464C191.694 52.8267 191.545 53.5627 191.545 54.672V70.672C191.545 71.7813 191.694 72.5173 191.993 72.88C192.313 73.2427 192.964 73.424 193.945 73.424C195.929 73.424 197.476 73.008 198.585 72.176C199.716 71.3227 200.505 70.0853 200.953 68.464C201.422 66.8427 201.657 64.8693 201.657 62.544C201.657 60.1547 201.401 58.1813 200.889 56.624C200.398 55.0453 199.588 53.872 198.457 53.104C197.326 52.3147 195.812 51.92 193.913 51.92ZM218.931 57.008C219.592 57.008 220.136 57.1467 220.563 57.424C221.011 57.7013 221.342 58.0533 221.555 58.48C221.768 58.9067 221.875 59.3547 221.875 59.824C221.875 60.528 221.662 61.1147 221.235 61.584C220.83 62.0533 220.286 62.288 219.603 62.288C218.963 62.288 218.44 62.1173 218.035 61.776C217.63 61.4347 217.427 60.9653 217.427 60.368C217.427 59.8347 217.555 59.3867 217.811 59.024C218.088 58.6613 218.398 58.3733 218.739 58.16C218.504 58.032 218.238 57.9893 217.939 58.032C217.427 58.0747 216.958 58.256 216.531 58.576C216.104 58.896 215.742 59.2907 215.443 59.76C215.144 60.2293 214.91 60.7307 214.739 61.264C214.59 61.7973 214.515 62.3093 214.515 62.8V70.704C214.515 71.7493 214.782 72.4533 215.315 72.816C215.848 73.1573 216.627 73.328 217.651 73.328V74C217.16 73.9787 216.446 73.9573 215.507 73.936C214.59 73.8933 213.63 73.872 212.627 73.872C211.795 73.872 210.963 73.8933 210.131 73.936C209.32 73.9573 208.712 73.9787 208.307 74V73.328C209.096 73.328 209.651 73.168 209.971 72.848C210.312 72.528 210.483 71.92 210.483 71.024V60.944C210.483 59.984 210.323 59.28 210.003 58.832C209.704 58.3627 209.139 58.128 208.307 58.128V57.456C208.99 57.52 209.651 57.552 210.291 57.552C211.08 57.552 211.827 57.52 212.531 57.456C213.256 57.3707 213.918 57.2533 214.515 57.104V60.432C214.771 59.8347 215.102 59.28 215.507 58.768C215.934 58.256 216.435 57.84 217.011 57.52C217.608 57.1787 218.248 57.008 218.931 57.008ZM224.848 69.776C225.573 69.776 226.17 69.9893 226.64 70.416C227.109 70.8427 227.344 71.408 227.344 72.112C227.344 72.816 227.109 73.3813 226.64 73.808C226.17 74.2347 225.573 74.448 224.848 74.448C224.101 74.448 223.493 74.2347 223.024 73.808C222.576 73.3813 222.352 72.816 222.352 72.112C222.352 71.408 222.576 70.8427 223.024 70.416C223.493 69.9893 224.101 69.776 224.848 69.776ZM244.846 50.96C246.04 50.96 246.958 51.088 247.598 51.344C248.238 51.6 248.792 51.8773 249.262 52.176C249.518 52.3253 249.72 52.4427 249.87 52.528C250.04 52.592 250.2 52.624 250.35 52.624C250.563 52.624 250.712 52.5067 250.798 52.272C250.904 52.0373 250.99 51.6853 251.054 51.216H251.79C251.768 51.6213 251.736 52.0907 251.694 52.624C251.672 53.1573 251.651 53.872 251.63 54.768C251.63 55.6427 251.63 56.8053 251.63 58.256H250.894C250.83 57.168 250.584 56.1227 250.158 55.12C249.752 54.1173 249.166 53.296 248.398 52.656C247.651 51.9947 246.691 51.664 245.518 51.664C244.472 51.664 243.598 51.9733 242.894 52.592C242.211 53.2107 241.87 54.0427 241.87 55.088C241.87 55.984 242.094 56.7413 242.542 57.36C242.99 57.9573 243.619 58.544 244.43 59.12C245.262 59.6747 246.243 60.3147 247.374 61.04C248.419 61.7227 249.358 62.4053 250.19 63.088C251.022 63.7493 251.672 64.4853 252.142 65.296C252.632 66.1067 252.878 67.0987 252.878 68.272C252.878 69.6587 252.536 70.8107 251.854 71.728C251.171 72.6453 250.254 73.328 249.102 73.776C247.95 74.224 246.691 74.448 245.326 74.448C244.067 74.448 243.064 74.32 242.318 74.064C241.592 73.808 240.963 73.5413 240.43 73.264C239.96 72.9653 239.598 72.816 239.342 72.816C239.128 72.816 238.968 72.9333 238.862 73.168C238.776 73.4027 238.702 73.7547 238.638 74.224H237.902C237.944 73.7333 237.966 73.1573 237.966 72.496C237.987 71.8347 237.998 70.9813 237.998 69.936C238.019 68.8693 238.03 67.5253 238.03 65.904H238.766C238.851 67.2693 239.086 68.5493 239.47 69.744C239.875 70.9173 240.483 71.8667 241.294 72.592C242.126 73.3173 243.224 73.68 244.59 73.68C245.336 73.68 246.008 73.552 246.606 73.296C247.224 73.0187 247.715 72.6027 248.078 72.048C248.44 71.472 248.622 70.7467 248.622 69.872C248.622 68.9973 248.419 68.2293 248.014 67.568C247.608 66.9067 247.043 66.288 246.318 65.712C245.592 65.136 244.739 64.5493 243.758 63.952C242.755 63.312 241.816 62.6613 240.942 62C240.067 61.3387 239.363 60.592 238.83 59.76C238.318 58.9067 238.062 57.8827 238.062 56.688C238.062 55.3653 238.382 54.288 239.022 53.456C239.662 52.6027 240.494 51.9733 241.518 51.568C242.563 51.1627 243.672 50.96 244.846 50.96ZM260.856 52.208V57.488H264.952V58.128H260.856V70.864C260.856 71.632 260.995 72.176 261.272 72.496C261.55 72.816 261.944 72.976 262.456 72.976C262.947 72.976 263.395 72.7947 263.8 72.432C264.206 72.048 264.568 71.4187 264.888 70.544L265.464 70.8C265.144 71.8453 264.643 72.72 263.96 73.424C263.299 74.1067 262.36 74.448 261.144 74.448C260.419 74.448 259.8 74.352 259.288 74.16C258.798 73.9893 258.371 73.7333 258.008 73.392C257.539 72.9013 257.219 72.3147 257.048 71.632C256.899 70.9493 256.824 70.0427 256.824 68.912V58.128H254.008V57.488H256.824V53.04C257.592 53.0187 258.307 52.944 258.968 52.816C259.63 52.688 260.259 52.4853 260.856 52.208ZM281.194 57.104V70.544C281.194 71.504 281.354 72.2187 281.674 72.688C281.994 73.136 282.56 73.36 283.37 73.36V74.032C282.709 73.968 282.048 73.936 281.386 73.936C280.597 73.936 279.84 73.968 279.114 74.032C278.41 74.096 277.76 74.2133 277.162 74.384V71.184C276.629 72.3573 275.893 73.2 274.954 73.712C274.037 74.2027 273.045 74.448 271.978 74.448C271.146 74.448 270.442 74.3307 269.866 74.096C269.312 73.8827 268.864 73.584 268.522 73.2C268.16 72.7947 267.904 72.2613 267.754 71.6C267.605 70.9387 267.53 70.0853 267.53 69.04V60.944C267.53 59.984 267.37 59.28 267.05 58.832C266.752 58.3627 266.186 58.128 265.354 58.128V57.456C266.037 57.52 266.698 57.552 267.338 57.552C268.128 57.552 268.874 57.52 269.578 57.456C270.304 57.3707 270.965 57.2533 271.562 57.104V70.16C271.562 70.736 271.605 71.248 271.69 71.696C271.797 72.144 272 72.5067 272.298 72.784C272.597 73.04 273.045 73.168 273.642 73.168C274.304 73.168 274.901 72.976 275.434 72.592C275.968 72.208 276.384 71.6853 276.682 71.024C277.002 70.3627 277.162 69.616 277.162 68.784V60.944C277.162 59.984 277.002 59.28 276.682 58.832C276.384 58.3627 275.818 58.128 274.986 58.128V57.456C275.669 57.52 276.33 57.552 276.97 57.552C277.76 57.552 278.506 57.52 279.21 57.456C279.936 57.3707 280.597 57.2533 281.194 57.104ZM288.96 74.224C288.043 74.224 287.264 74.0533 286.624 73.712C285.984 73.3493 285.504 72.8693 285.184 72.272C284.864 71.6533 284.704 70.9707 284.704 70.224C284.704 69.3067 284.917 68.56 285.344 67.984C285.771 67.3867 286.315 66.9173 286.976 66.576C287.659 66.2133 288.373 65.9147 289.12 65.68C289.867 65.424 290.571 65.1893 291.232 64.976C291.893 64.7413 292.437 64.4747 292.864 64.176C293.291 63.8773 293.504 63.4827 293.504 62.992V60.656C293.504 59.9733 293.397 59.4187 293.184 58.992C292.992 58.544 292.693 58.2133 292.288 58C291.904 57.7653 291.413 57.648 290.816 57.648C290.368 57.648 289.899 57.712 289.408 57.84C288.917 57.968 288.512 58.2133 288.192 58.576C288.747 58.7253 289.173 59.0027 289.472 59.408C289.792 59.8133 289.952 60.304 289.952 60.88C289.952 61.5413 289.728 62.064 289.28 62.448C288.853 62.8107 288.309 62.992 287.648 62.992C286.944 62.992 286.411 62.768 286.048 62.32C285.685 61.872 285.504 61.3493 285.504 60.752C285.504 60.1547 285.653 59.664 285.952 59.28C286.251 58.8747 286.667 58.512 287.2 58.192C287.733 57.8293 288.416 57.5413 289.248 57.328C290.08 57.1147 290.987 57.008 291.968 57.008C292.907 57.008 293.739 57.1147 294.464 57.328C295.189 57.52 295.808 57.872 296.32 58.384C296.832 58.8747 297.163 59.4827 297.312 60.208C297.461 60.9333 297.536 61.8187 297.536 62.864V71.632C297.536 72.1653 297.6 72.5493 297.728 72.784C297.856 72.9973 298.059 73.104 298.336 73.104C298.549 73.104 298.752 73.0507 298.944 72.944C299.136 72.8373 299.349 72.688 299.584 72.496L299.936 73.04C299.467 73.4027 298.976 73.6907 298.464 73.904C297.952 74.1173 297.333 74.224 296.608 74.224C295.861 74.224 295.264 74.1173 294.816 73.904C294.389 73.6907 294.069 73.3813 293.856 72.976C293.664 72.5707 293.557 72.0907 293.536 71.536C293.024 72.3893 292.395 73.0507 291.648 73.52C290.901 73.9893 290.005 74.224 288.96 74.224ZM290.88 72.432C291.392 72.432 291.861 72.2933 292.288 72.016C292.736 71.7387 293.141 71.3227 293.504 70.768V64.304C293.291 64.624 292.981 64.912 292.576 65.168C292.192 65.424 291.776 65.68 291.328 65.936C290.88 66.192 290.453 66.4907 290.048 66.832C289.664 67.152 289.333 67.5573 289.056 68.048C288.8 68.5173 288.672 69.1253 288.672 69.872C288.672 70.704 288.875 71.344 289.28 71.792C289.685 72.2187 290.219 72.432 290.88 72.432ZM311.16 57.008C311.821 57.008 312.365 57.1467 312.792 57.424C313.24 57.7013 313.57 58.0533 313.784 58.48C313.997 58.9067 314.104 59.3547 314.104 59.824C314.104 60.528 313.89 61.1147 313.464 61.584C313.058 62.0533 312.514 62.288 311.832 62.288C311.192 62.288 310.669 62.1173 310.264 61.776C309.858 61.4347 309.656 60.9653 309.656 60.368C309.656 59.8347 309.784 59.3867 310.04 59.024C310.317 58.6613 310.626 58.3733 310.968 58.16C310.733 58.032 310.466 57.9893 310.168 58.032C309.656 58.0747 309.186 58.256 308.76 58.576C308.333 58.896 307.97 59.2907 307.672 59.76C307.373 60.2293 307.138 60.7307 306.968 61.264C306.818 61.7973 306.744 62.3093 306.744 62.8V70.704C306.744 71.7493 307.01 72.4533 307.544 72.816C308.077 73.1573 308.856 73.328 309.88 73.328V74C309.389 73.9787 308.674 73.9573 307.736 73.936C306.818 73.8933 305.858 73.872 304.856 73.872C304.024 73.872 303.192 73.8933 302.36 73.936C301.549 73.9573 300.941 73.9787 300.536 74V73.328C301.325 73.328 301.88 73.168 302.2 72.848C302.541 72.528 302.712 71.92 302.712 71.024V60.944C302.712 59.984 302.552 59.28 302.232 58.832C301.933 58.3627 301.368 58.128 300.536 58.128V57.456C301.218 57.52 301.88 57.552 302.52 57.552C303.309 57.552 304.056 57.52 304.76 57.456C305.485 57.3707 306.146 57.2533 306.744 57.104V60.432C307 59.8347 307.33 59.28 307.736 58.768C308.162 58.256 308.664 57.84 309.24 57.52C309.837 57.1787 310.477 57.008 311.16 57.008ZM320.951 52.208V57.488H325.047V58.128H320.951V70.864C320.951 71.632 321.09 72.176 321.367 72.496C321.645 72.816 322.039 72.976 322.551 72.976C323.042 72.976 323.49 72.7947 323.895 72.432C324.301 72.048 324.663 71.4187 324.983 70.544L325.559 70.8C325.239 71.8453 324.738 72.72 324.055 73.424C323.394 74.1067 322.455 74.448 321.239 74.448C320.514 74.448 319.895 74.352 319.383 74.16C318.893 73.9893 318.466 73.7333 318.103 73.392C317.634 72.9013 317.314 72.3147 317.143 71.632C316.994 70.9493 316.919 70.0427 316.919 68.912V58.128H314.103V57.488H316.919V53.04C317.687 53.0187 318.402 52.944 319.063 52.816C319.725 52.688 320.354 52.4853 320.951 52.208ZM333.177 51.344C333.71 51.3653 334.393 51.3867 335.225 51.408C336.057 51.4293 336.889 51.44 337.721 51.44C338.766 51.44 339.758 51.4293 340.697 51.408C341.636 51.3867 342.297 51.376 342.681 51.376C345.198 51.376 347.076 51.8453 348.313 52.784C349.572 53.7227 350.201 54.928 350.201 56.4C350.201 57.1467 349.998 57.8933 349.593 58.64C349.209 59.3867 348.58 60.0587 347.705 60.656C346.852 61.2533 345.732 61.7013 344.345 62V62.064C346.222 62.2347 347.705 62.6187 348.793 63.216C349.902 63.792 350.692 64.4853 351.161 65.296C351.63 66.0853 351.865 66.9173 351.865 67.792C351.865 69.0933 351.524 70.2133 350.841 71.152C350.18 72.0693 349.22 72.7733 347.961 73.264C346.702 73.7547 345.188 74 343.417 74C342.948 74 342.233 73.9893 341.273 73.968C340.313 73.9253 339.15 73.904 337.785 73.904C336.91 73.904 336.057 73.9147 335.225 73.936C334.393 73.936 333.71 73.9573 333.177 74V73.36C333.881 73.3173 334.404 73.232 334.745 73.104C335.108 72.976 335.342 72.72 335.449 72.336C335.577 71.952 335.641 71.376 335.641 70.608V54.736C335.641 53.9467 335.577 53.3707 335.449 53.008C335.342 52.624 335.108 52.368 334.745 52.24C334.404 52.0907 333.881 52.0053 333.177 51.984V51.344ZM342.137 51.984C341.262 51.984 340.686 52.1653 340.409 52.528C340.153 52.8907 340.025 53.6267 340.025 54.736V70.608C340.025 71.3547 340.089 71.92 340.217 72.304C340.345 72.688 340.569 72.944 340.889 73.072C341.209 73.2 341.678 73.264 342.297 73.264C344.046 73.264 345.305 72.784 346.073 71.824C346.862 70.8427 347.257 69.456 347.257 67.664C347.257 66.0213 346.83 64.752 345.977 63.856C345.145 62.96 343.758 62.512 341.817 62.512H338.905C338.905 62.512 338.905 62.4267 338.905 62.256C338.905 62.064 338.905 61.968 338.905 61.968H341.657C342.745 61.968 343.588 61.7333 344.185 61.264C344.782 60.7733 345.188 60.1333 345.401 59.344C345.614 58.5333 345.721 57.6693 345.721 56.752C345.721 55.1733 345.444 53.9893 344.889 53.2C344.334 52.3893 343.417 51.984 342.137 51.984ZM364.036 57.008C364.697 57.008 365.241 57.1467 365.668 57.424C366.116 57.7013 366.447 58.0533 366.66 58.48C366.873 58.9067 366.98 59.3547 366.98 59.824C366.98 60.528 366.767 61.1147 366.34 61.584C365.935 62.0533 365.391 62.288 364.708 62.288C364.068 62.288 363.545 62.1173 363.14 61.776C362.735 61.4347 362.532 60.9653 362.532 60.368C362.532 59.8347 362.66 59.3867 362.916 59.024C363.193 58.6613 363.503 58.3733 363.844 58.16C363.609 58.032 363.343 57.9893 363.044 58.032C362.532 58.0747 362.063 58.256 361.636 58.576C361.209 58.896 360.847 59.2907 360.548 59.76C360.249 60.2293 360.015 60.7307 359.844 61.264C359.695 61.7973 359.62 62.3093 359.62 62.8V70.704C359.62 71.7493 359.887 72.4533 360.42 72.816C360.953 73.1573 361.732 73.328 362.756 73.328V74C362.265 73.9787 361.551 73.9573 360.612 73.936C359.695 73.8933 358.735 73.872 357.732 73.872C356.9 73.872 356.068 73.8933 355.236 73.936C354.425 73.9573 353.817 73.9787 353.412 74V73.328C354.201 73.328 354.756 73.168 355.076 72.848C355.417 72.528 355.588 71.92 355.588 71.024V60.944C355.588 59.984 355.428 59.28 355.108 58.832C354.809 58.3627 354.244 58.128 353.412 58.128V57.456C354.095 57.52 354.756 57.552 355.396 57.552C356.185 57.552 356.932 57.52 357.636 57.456C358.361 57.3707 359.023 57.2533 359.62 57.104V60.432C359.876 59.8347 360.207 59.28 360.612 58.768C361.039 58.256 361.54 57.84 362.116 57.52C362.713 57.1787 363.353 57.008 364.036 57.008ZM375.408 57.008C376.88 57.008 378.181 57.3067 379.312 57.904C380.464 58.48 381.37 59.408 382.032 60.688C382.714 61.968 383.056 63.6533 383.056 65.744C383.056 67.8347 382.714 69.52 382.032 70.8C381.37 72.08 380.464 73.008 379.312 73.584C378.181 74.16 376.88 74.448 375.408 74.448C373.936 74.448 372.624 74.16 371.472 73.584C370.32 73.008 369.413 72.08 368.752 70.8C368.09 69.52 367.76 67.8347 367.76 65.744C367.76 63.6533 368.09 61.968 368.752 60.688C369.413 59.408 370.32 58.48 371.472 57.904C372.624 57.3067 373.936 57.008 375.408 57.008ZM375.408 57.648C374.405 57.648 373.584 58.288 372.944 59.568C372.325 60.8267 372.016 62.8853 372.016 65.744C372.016 68.6027 372.325 70.6613 372.944 71.92C373.584 73.1787 374.405 73.808 375.408 73.808C376.389 73.808 377.2 73.1787 377.84 71.92C378.48 70.6613 378.8 68.6027 378.8 65.744C378.8 62.8853 378.48 60.8267 377.84 59.568C377.2 58.288 376.389 57.648 375.408 57.648ZM391.659 57.456V58.128C391.147 58.128 390.709 58.1707 390.347 58.256C389.984 58.32 389.739 58.4907 389.611 58.768C389.504 59.0453 389.557 59.536 389.771 60.24L392.907 69.776L392.555 70.032L396.619 57.392L397.291 57.712L392.075 74.096C391.819 74.0747 391.552 74.064 391.275 74.064C391.019 74.064 390.763 74.0747 390.507 74.096L385.387 59.92C385.045 59.0667 384.704 58.5547 384.363 58.384C384.043 58.2133 383.765 58.128 383.531 58.128V57.456C384.128 57.52 384.747 57.5733 385.387 57.616C386.027 57.6373 386.731 57.648 387.499 57.648C388.16 57.648 388.853 57.6267 389.579 57.584C390.325 57.5413 391.019 57.4987 391.659 57.456ZM408.651 57.456V58.128C408.245 58.2133 407.851 58.4373 407.467 58.8C407.104 59.1413 406.773 59.7813 406.475 60.72L402.091 74.096C401.835 74.0747 401.579 74.064 401.323 74.064C401.067 74.064 400.8 74.0747 400.523 74.096L395.819 61.52L396.651 57.392C396.949 57.4133 397.248 57.424 397.547 57.424C397.845 57.424 398.144 57.4133 398.443 57.392L403.019 70.416L402.699 70.256L405.195 62.512C405.515 61.488 405.632 60.6667 405.547 60.048C405.483 59.4293 405.237 58.9707 404.811 58.672C404.405 58.352 403.84 58.1707 403.115 58.128V57.456C403.456 57.4773 403.808 57.4987 404.171 57.52C404.533 57.5413 404.885 57.5627 405.227 57.584C405.568 57.584 405.888 57.584 406.187 57.584C406.635 57.584 407.083 57.5733 407.531 57.552C407.979 57.5307 408.352 57.4987 408.651 57.456ZM420.659 57.008C421.555 57.008 422.269 57.1253 422.803 57.36C423.357 57.5947 423.805 57.8933 424.147 58.256C424.531 58.6613 424.797 59.184 424.947 59.824C425.117 60.464 425.203 61.328 425.203 62.416V71.024C425.203 71.92 425.363 72.528 425.683 72.848C426.024 73.168 426.589 73.328 427.379 73.328V74C426.995 73.9787 426.397 73.9573 425.587 73.936C424.797 73.8933 424.029 73.872 423.283 73.872C422.493 73.872 421.725 73.8933 420.979 73.936C420.232 73.9573 419.677 73.9787 419.315 74V73.328C419.997 73.328 420.477 73.168 420.755 72.848C421.032 72.528 421.171 71.92 421.171 71.024V61.328C421.171 60.752 421.117 60.24 421.011 59.792C420.904 59.3227 420.691 58.96 420.371 58.704C420.051 58.4267 419.592 58.288 418.995 58.288C418.291 58.288 417.661 58.48 417.107 58.864C416.573 59.248 416.147 59.7813 415.827 60.464C415.528 61.1253 415.379 61.872 415.379 62.704V71.024C415.379 71.92 415.517 72.528 415.795 72.848C416.072 73.168 416.552 73.328 417.235 73.328V74C416.872 73.9787 416.328 73.9573 415.603 73.936C414.877 73.8933 414.141 73.872 413.395 73.872C412.605 73.872 411.805 73.8933 410.995 73.936C410.184 73.9573 409.576 73.9787 409.171 74V73.328C409.96 73.328 410.515 73.168 410.835 72.848C411.176 72.528 411.347 71.92 411.347 71.024V60.944C411.347 59.984 411.187 59.28 410.867 58.832C410.568 58.3627 410.003 58.128 409.171 58.128V57.456C409.853 57.52 410.515 57.552 411.155 57.552C411.944 57.552 412.691 57.52 413.395 57.456C414.12 57.3707 414.781 57.2533 415.379 57.104V60.304C415.912 59.088 416.648 58.2347 417.587 57.744C418.525 57.2533 419.549 57.008 420.659 57.008Z" fill="#313131"/>
</svg>
