<svg width="62" height="56" viewBox="0 0 62 56" fill="none" xmlns="http://www.w3.org/2000/svg">
<g filter="url(#filter0_d_616_45)">
<path d="M4.93498 47.51C4.75498 47.51 4.60998 47.455 4.49998 47.345C4.39998 47.245 4.34998 47.105 4.34998 46.925V39.845C4.35998 39.065 4.54498 38.365 4.90498 37.745C5.27498 37.115 5.76998 36.62 6.38998 36.26C7.01998 35.9 7.72498 35.72 8.50498 35.72C9.30498 35.72 10.02 35.905 10.65 36.275C11.28 36.635 11.775 37.13 12.135 37.76C12.505 38.39 12.69 39.105 12.69 39.905C12.69 40.695 12.51 41.405 12.15 42.035C11.8 42.665 11.32 43.165 10.71 43.535C10.1 43.895 9.40998 44.075 8.63998 44.075C7.96998 44.075 7.35998 43.935 6.80998 43.655C6.26998 43.365 5.83498 42.985 5.50498 42.515V46.925C5.50498 47.105 5.44998 47.245 5.33998 47.345C5.23998 47.455 5.10498 47.51 4.93498 47.51ZM8.50498 43.025C9.08498 43.025 9.60498 42.89 10.065 42.62C10.525 42.35 10.885 41.98 11.145 41.51C11.415 41.03 11.55 40.495 11.55 39.905C11.55 39.305 11.415 38.77 11.145 38.3C10.885 37.83 10.525 37.46 10.065 37.19C9.60498 36.91 9.08498 36.77 8.50498 36.77C7.93498 36.77 7.41998 36.91 6.95998 37.19C6.49998 37.46 6.13998 37.83 5.87998 38.3C5.61998 38.77 5.48998 39.305 5.48998 39.905C5.48998 40.495 5.61998 41.03 5.87998 41.51C6.13998 41.98 6.49998 42.35 6.95998 42.62C7.41998 42.89 7.93498 43.025 8.50498 43.025Z" fill="#1A1818"/>
<path d="M18.5254 44.09C17.8154 44.09 17.1804 43.945 16.6204 43.655C16.0604 43.355 15.6154 42.92 15.2854 42.35C14.9654 41.78 14.8054 41.085 14.8054 40.265V36.365C14.8054 36.205 14.8604 36.07 14.9704 35.96C15.0804 35.85 15.2154 35.795 15.3754 35.795C15.5454 35.795 15.6854 35.85 15.7954 35.96C15.9054 36.07 15.9604 36.205 15.9604 36.365V40.265C15.9604 40.885 16.0754 41.395 16.3054 41.795C16.5454 42.195 16.8654 42.495 17.2654 42.695C17.6754 42.895 18.1354 42.995 18.6454 42.995C19.1354 42.995 19.5754 42.9 19.9654 42.71C20.3654 42.52 20.6804 42.26 20.9104 41.93C21.1404 41.6 21.2554 41.225 21.2554 40.805H22.0804C22.0504 41.435 21.8754 42 21.5554 42.5C21.2454 42.99 20.8254 43.38 20.2954 43.67C19.7654 43.95 19.1754 44.09 18.5254 44.09ZM21.8254 44C21.6554 44 21.5154 43.95 21.4054 43.85C21.3054 43.74 21.2554 43.595 21.2554 43.415V36.365C21.2554 36.195 21.3054 36.06 21.4054 35.96C21.5154 35.85 21.6554 35.795 21.8254 35.795C21.9954 35.795 22.1354 35.85 22.2454 35.96C22.3554 36.06 22.4104 36.195 22.4104 36.365V43.415C22.4104 43.595 22.3554 43.74 22.2454 43.85C22.1354 43.95 21.9954 44 21.8254 44Z" fill="#1A1818"/>
<path d="M28.8418 44.075C28.0518 44.075 27.3418 43.895 26.7118 43.535C26.0818 43.165 25.5818 42.665 25.2118 42.035C24.8518 41.405 24.6718 40.69 24.6718 39.89C24.6718 39.1 24.8468 38.39 25.1968 37.76C25.5568 37.13 26.0418 36.635 26.6518 36.275C27.2618 35.905 27.9518 35.72 28.7218 35.72C29.3918 35.72 29.9968 35.865 30.5368 36.155C31.0768 36.435 31.5118 36.81 31.8418 37.28V32.87C31.8418 32.69 31.8968 32.55 32.0068 32.45C32.1168 32.34 32.2568 32.285 32.4268 32.285C32.5968 32.285 32.7368 32.34 32.8468 32.45C32.9568 32.55 33.0118 32.69 33.0118 32.87V39.95C32.9918 40.73 32.7968 41.435 32.4268 42.065C32.0668 42.685 31.5718 43.175 30.9418 43.535C30.3218 43.895 29.6218 44.075 28.8418 44.075ZM28.8418 43.025C29.4218 43.025 29.9368 42.89 30.3868 42.62C30.8468 42.34 31.2068 41.965 31.4668 41.495C31.7368 41.025 31.8718 40.49 31.8718 39.89C31.8718 39.3 31.7368 38.77 31.4668 38.3C31.2068 37.82 30.8468 37.445 30.3868 37.175C29.9368 36.905 29.4218 36.77 28.8418 36.77C28.2718 36.77 27.7568 36.905 27.2968 37.175C26.8368 37.445 26.4718 37.82 26.2018 38.3C25.9318 38.77 25.7968 39.3 25.7968 39.89C25.7968 40.49 25.9318 41.025 26.2018 41.495C26.4718 41.965 26.8368 42.34 27.2968 42.62C27.7568 42.89 28.2718 43.025 28.8418 43.025Z" fill="#1A1818"/>
<path d="M39.4473 44.075C38.6573 44.075 37.9473 43.895 37.3173 43.535C36.6873 43.165 36.1873 42.665 35.8173 42.035C35.4573 41.405 35.2773 40.69 35.2773 39.89C35.2773 39.1 35.4523 38.39 35.8023 37.76C36.1623 37.13 36.6473 36.635 37.2573 36.275C37.8673 35.905 38.5573 35.72 39.3273 35.72C39.9973 35.72 40.6023 35.865 41.1423 36.155C41.6823 36.435 42.1173 36.81 42.4473 37.28V32.87C42.4473 32.69 42.5023 32.55 42.6123 32.45C42.7223 32.34 42.8623 32.285 43.0323 32.285C43.2023 32.285 43.3423 32.34 43.4523 32.45C43.5623 32.55 43.6173 32.69 43.6173 32.87V39.95C43.5973 40.73 43.4023 41.435 43.0323 42.065C42.6723 42.685 42.1773 43.175 41.5473 43.535C40.9273 43.895 40.2273 44.075 39.4473 44.075ZM39.4473 43.025C40.0273 43.025 40.5423 42.89 40.9923 42.62C41.4523 42.34 41.8123 41.965 42.0723 41.495C42.3423 41.025 42.4773 40.49 42.4773 39.89C42.4773 39.3 42.3423 38.77 42.0723 38.3C41.8123 37.82 41.4523 37.445 40.9923 37.175C40.5423 36.905 40.0273 36.77 39.4473 36.77C38.8773 36.77 38.3623 36.905 37.9023 37.175C37.4423 37.445 37.0773 37.82 36.8073 38.3C36.5373 38.77 36.4023 39.3 36.4023 39.89C36.4023 40.49 36.5373 41.025 36.8073 41.495C37.0773 41.965 37.4423 42.34 37.9023 42.62C38.3623 42.89 38.8773 43.025 39.4473 43.025Z" fill="#1A1818"/>
<path d="M48.0877 44C47.6877 44 47.3278 43.89 47.0078 43.67C46.6978 43.45 46.4528 43.145 46.2728 42.755C46.1028 42.365 46.0177 41.915 46.0177 41.405V32.855C46.0177 32.685 46.0678 32.55 46.1678 32.45C46.2778 32.34 46.4177 32.285 46.5877 32.285C46.7577 32.285 46.8928 32.34 46.9928 32.45C47.1028 32.55 47.1577 32.685 47.1577 32.855V41.405C47.1577 41.835 47.2428 42.185 47.4128 42.455C47.5928 42.725 47.8177 42.86 48.0877 42.86H48.4627C48.6127 42.86 48.7328 42.915 48.8228 43.025C48.9128 43.125 48.9578 43.26 48.9578 43.43C48.9578 43.6 48.8928 43.74 48.7628 43.85C48.6428 43.95 48.4827 44 48.2827 44H48.0877Z" fill="#1A1818"/>
<path d="M53.817 44.075C53.007 44.075 52.287 43.9 51.657 43.55C51.037 43.19 50.547 42.695 50.187 42.065C49.837 41.435 49.662 40.715 49.662 39.905C49.662 39.085 49.827 38.365 50.157 37.745C50.497 37.115 50.962 36.62 51.552 36.26C52.142 35.9 52.822 35.72 53.592 35.72C54.352 35.72 55.012 35.895 55.572 36.245C56.142 36.585 56.582 37.06 56.892 37.67C57.202 38.28 57.357 38.975 57.357 39.755C57.357 39.915 57.307 40.045 57.207 40.145C57.107 40.235 56.977 40.28 56.817 40.28H50.442V39.32H56.937L56.292 39.785C56.302 39.205 56.197 38.685 55.977 38.225C55.757 37.765 55.442 37.405 55.032 37.145C54.632 36.885 54.152 36.755 53.592 36.755C53.022 36.755 52.522 36.89 52.092 37.16C51.662 37.43 51.327 37.805 51.087 38.285C50.857 38.755 50.742 39.295 50.742 39.905C50.742 40.515 50.872 41.055 51.132 41.525C51.402 41.995 51.767 42.365 52.227 42.635C52.687 42.905 53.217 43.04 53.817 43.04C54.177 43.04 54.537 42.98 54.897 42.86C55.267 42.73 55.562 42.57 55.782 42.38C55.892 42.29 56.017 42.245 56.157 42.245C56.297 42.235 56.417 42.27 56.517 42.35C56.647 42.47 56.712 42.6 56.712 42.74C56.722 42.88 56.667 43 56.547 43.1C56.217 43.38 55.797 43.615 55.287 43.805C54.777 43.985 54.287 44.075 53.817 44.075Z" fill="#1A1818"/>
<path d="M32.3289 0.00247274L32.3466 12.6602L38.8801 3.27222C38.1164 2.22818 37.1242 1.38723 35.9851 0.818714C34.846 0.250203 33.5928 -0.0295702 32.3289 0.00247274Z" fill="#00A8D8"/>
<path d="M39.7159 4.95383L32.3461 15.5179L32.3545 21.3754C37.2901 20.6885 37.8772 19.1683 38.9639 17.946C40.0507 16.7236 43.1885 10.3379 39.7159 4.95383Z" fill="#5E4E9B"/>
<path d="M30.5782 19.4973C30.6095 13.3336 30.609 7.16989 30.6223 1.00642C30.6223 0.70244 30.6223 0.398711 30.6223 0.0329086C25.9772 -0.123426 21.8872 3.14351 20.5139 7.58602L30.4251 21.2014C30.5209 20.6387 30.5722 20.0687 30.5782 19.4973Z" fill="#00A8D8"/>
<path d="M20.0231 11.2262C19.9785 17.4591 20.0115 23.6921 20.0157 29.9263C20.0157 30.1925 20.063 30.4589 20.0916 30.7575C20.4193 30.7575 20.6861 30.7767 20.9489 30.7547C25.1128 30.4055 28.6296 27.3989 29.9792 23.4451L20.1173 9.89401C20.0589 10.3356 20.0275 10.7805 20.0231 11.2262Z" fill="#5E4E9B"/>
</g>
<defs>
<filter id="filter0_d_616_45" x="0" y="0" width="62" height="56" filterUnits="userSpaceOnUse" color-interpolation-filters="sRGB">
<feFlood flood-opacity="0" result="BackgroundImageFix"/>
<feColorMatrix in="SourceAlpha" type="matrix" values="0 0 0 0 0 0 0 0 0 0 0 0 0 0 0 0 0 0 127 0" result="hardAlpha"/>
<feOffset dy="4"/>
<feGaussianBlur stdDeviation="2"/>
<feColorMatrix type="matrix" values="0 0 0 0 0 0 0 0 0 0 0 0 0 0 0 0 0 0 0.25 0"/>
<feBlend mode="normal" in2="BackgroundImageFix" result="effect1_dropShadow_616_45"/>
<feBlend mode="normal" in="SourceGraphic" in2="effect1_dropShadow_616_45" result="shape"/>
</filter>
</defs>
</svg>
